{"glyphs":{"0":{"ha":769,"x_min":71,"x_max":699,"o":"m 628 865 q 664 803 628 865 q 699 486 699 740 q 628 107 699 232 q 385 -18 558 -18 q 141 107 211 -18 q 71 486 71 232 q 141 865 71 740 q 385 990 211 990 q 628 865 558 990 m 185 486 q 188 356 185 407 q 202 249 190 304 q 235 161 214 193 q 293 108 256 129 q 385 88 331 88 q 476 108 439 88 q 533 161 513 129 q 566 249 554 193 q 581 356 578 304 q 583 486 583 407 q 581 617 583 565 q 566 724 578 668 q 533 811 554 779 q 476 864 513 843 q 385 885 439 885 q 306 872 340 885 q 251 831 272 858 q 216 771 229 803 q 196 690 203 739 q 187 595 189 640 q 185 486 185 550 z "},"1":{"ha":432,"x_min":56,"x_max":315,"o":"m 90 813 l 56 906 l 224 972 l 315 972 l 315 0 l 203 0 l 203 858 l 90 813 z "},"2":{"ha":708,"x_min":61,"x_max":651,"o":"m 61 0 l 61 42 q 95 169 61 106 q 181 281 129 232 q 292 385 232 331 q 403 488 351 440 q 488 595 454 536 q 522 713 522 654 q 475 837 522 789 q 346 885 428 885 q 164 735 203 885 l 65 763 q 90 833 72 797 q 139 906 107 868 q 226 967 171 943 q 349 990 281 990 q 560 913 483 990 q 638 715 638 836 q 592 558 638 635 q 483 421 547 481 q 353 307 418 361 q 241 199 289 253 q 190 100 193 146 l 651 100 l 651 0 l 61 0 z "},"3":{"ha":729,"x_min":54,"x_max":665,"o":"m 631 972 l 631 867 l 376 569 q 475 553 426 569 q 567 503 524 536 q 638 414 611 471 q 665 283 665 357 q 577 69 665 154 q 357 -17 489 -17 q 152 45 225 -17 q 54 194 79 107 l 150 229 q 356 86 196 86 q 494 141 439 86 q 550 281 550 196 q 490 419 550 367 q 322 471 431 471 l 247 471 l 247 561 l 504 871 l 86 871 l 86 972 l 631 972 z "},"4":{"ha":778,"x_min":43,"x_max":733,"o":"m 43 246 l 43 331 l 486 972 l 606 972 l 606 346 l 733 346 l 733 246 l 606 246 l 606 0 l 494 0 l 494 246 l 43 246 m 167 346 l 494 346 l 494 826 l 167 346 z "},"5":{"ha":726,"x_min":54,"x_max":665,"o":"m 357 86 q 499 148 446 86 q 551 303 551 210 q 497 458 551 396 q 347 519 442 519 q 186 456 261 519 l 92 472 l 113 972 l 608 972 l 608 869 l 214 869 l 200 569 q 363 617 269 617 q 581 531 497 617 q 665 308 665 444 q 581 75 665 168 q 361 -18 497 -18 q 157 45 233 -18 q 54 194 81 108 l 151 229 q 357 86 194 86 z "},"6":{"ha":758,"x_min":68,"x_max":690,"o":"m 388 88 q 526 147 474 88 q 578 314 578 206 q 528 467 578 407 q 386 528 478 528 q 182 393 250 528 q 190 276 182 325 q 217 181 197 228 q 281 111 238 135 q 388 88 324 88 m 428 990 q 647 921 546 990 l 596 835 q 432 885 525 885 q 312 852 363 885 q 235 765 261 819 q 197 649 208 710 q 185 521 185 589 q 401 631 263 631 q 613 543 536 631 q 690 317 690 456 q 608 72 690 161 q 383 -18 525 -18 q 68 408 68 -18 q 428 990 68 990 z "},"7":{"ha":671,"x_min":40,"x_max":638,"o":"m 40 972 l 638 972 l 638 886 l 294 0 l 175 0 l 515 869 l 40 869 l 40 972 z "},"8":{"ha":763,"x_min":63,"x_max":700,"o":"m 611 63 q 567 22 611 63 q 381 -18 522 -18 q 151 63 239 -18 q 63 272 63 143 q 115 433 63 371 q 228 519 167 494 q 137 599 179 543 q 94 731 94 654 q 176 918 94 846 q 381 990 257 990 q 587 918 506 990 q 668 731 668 846 q 626 599 668 654 q 535 519 583 543 q 648 433 596 494 q 700 272 700 371 q 611 63 700 143 m 381 463 q 235 411 293 463 q 178 272 178 360 q 232 140 178 194 q 381 85 286 85 q 529 140 475 85 q 583 272 583 194 q 526 411 583 360 q 381 463 469 463 m 381 565 q 505 613 456 565 q 554 726 554 660 q 508 840 554 794 q 381 886 463 886 q 254 840 300 886 q 208 726 208 794 q 258 613 208 660 q 381 565 307 565 z "},"9":{"ha":758,"x_min":68,"x_max":690,"o":"m 371 885 q 233 826 285 885 q 181 658 181 767 q 231 505 181 565 q 372 444 281 444 q 576 579 508 444 q 569 696 576 647 q 541 791 561 744 q 478 861 521 838 q 371 885 435 885 m 331 -18 q 111 51 213 -18 l 163 138 q 326 88 233 88 q 447 120 396 88 q 524 208 497 153 q 562 323 550 263 q 574 451 574 383 q 357 342 496 342 q 145 429 222 342 q 68 656 68 517 q 151 901 68 811 q 375 990 233 990 q 690 564 690 990 q 331 -18 690 -18 z "},"¤":{"ha":706,"x_min":6,"x_max":700,"o":"m 6 0 l 6 972 l 700 972 l 700 0 l 6 0 m 353 549 l 589 903 l 117 903 l 353 549 m 394 486 l 631 132 l 631 840 l 394 486 m 75 132 l 311 486 l 75 840 l 75 132 m 117 69 l 589 69 l 353 424 l 117 69 z "},"±":{"ha":706,"x_min":6,"x_max":700,"o":"m 6 0 l 6 972 l 700 972 l 700 0 l 6 0 m 353 549 l 589 903 l 117 903 l 353 549 m 394 486 l 631 132 l 631 840 l 394 486 m 75 132 l 311 486 l 75 840 l 75 132 m 117 69 l 589 69 l 353 424 l 117 69 z "},"―":{"ha":706,"x_min":6,"x_max":700,"o":"m 6 0 l 6 972 l 700 972 l 700 0 l 6 0 m 353 549 l 589 903 l 117 903 l 353 549 m 394 486 l 631 132 l 631 840 l 394 486 m 75 132 l 311 486 l 75 840 l 75 132 m 117 69 l 589 69 l 353 424 l 117 69 z "},"‖":{"ha":706,"x_min":6,"x_max":700,"o":"m 6 0 l 6 972 l 700 972 l 700 0 l 6 0 m 353 549 l 589 903 l 117 903 l 353 549 m 394 486 l 631 132 l 631 840 l 394 486 m 75 132 l 311 486 l 75 840 l 75 132 m 117 69 l 589 69 l 353 424 l 117 69 z "},"‗":{"ha":706,"x_min":6,"x_max":700,"o":"m 6 0 l 6 972 l 700 972 l 700 0 l 6 0 m 353 549 l 589 903 l 117 903 l 353 549 m 394 486 l 631 132 l 631 840 l 394 486 m 75 132 l 311 486 l 75 840 l 75 132 m 117 69 l 589 69 l 353 424 l 117 69 z "},"‛":{"ha":706,"x_min":6,"x_max":700,"o":"m 6 0 l 6 972 l 700 972 l 700 0 l 6 0 m 353 549 l 589 903 l 117 903 l 353 549 m 394 486 l 631 132 l 631 840 l 394 486 m 75 132 l 311 486 l 75 840 l 75 132 m 117 69 l 589 69 l 353 424 l 117 69 z "},"‟":{"ha":706,"x_min":6,"x_max":700,"o":"m 6 0 l 6 972 l 700 972 l 700 0 l 6 0 m 353 549 l 589 903 l 117 903 l 353 549 m 394 486 l 631 132 l 631 840 l 394 486 m 75 132 l 311 486 l 75 840 l 75 132 m 117 69 l 589 69 l 353 424 l 117 69 z "},"‣":{"ha":706,"x_min":6,"x_max":700,"o":"m 6 0 l 6 972 l 700 972 l 700 0 l 6 0 m 353 549 l 589 903 l 117 903 l 353 549 m 394 486 l 631 132 l 631 840 l 394 486 m 75 132 l 311 486 l 75 840 l 75 132 m 117 69 l 589 69 l 353 424 l 117 69 z "},"․":{"ha":706,"x_min":6,"x_max":700,"o":"m 6 0 l 6 972 l 700 972 l 700 0 l 6 0 m 353 549 l 589 903 l 117 903 l 353 549 m 394 486 l 631 132 l 631 840 l 394 486 m 75 132 l 311 486 l 75 840 l 75 132 m 117 69 l 589 69 l 353 424 l 117 69 z "},"‥":{"ha":706,"x_min":6,"x_max":700,"o":"m 6 0 l 6 972 l 700 972 l 700 0 l 6 0 m 353 549 l 589 903 l 117 903 l 353 549 m 394 486 l 631 132 l 631 840 l 394 486 m 75 132 l 311 486 l 75 840 l 75 132 m 117 69 l 589 69 l 353 424 l 117 69 z "}," ":{"ha":353,"x_min":0,"x_max":0,"o":""},"!":{"ha":358,"x_min":101,"x_max":258,"o":"m 132 244 l 122 972 l 238 972 l 228 244 l 132 244 m 125 5 q 113 16 125 5 q 101 60 101 28 q 125 115 101 92 q 181 138 149 138 q 235 115 213 138 q 258 60 258 92 q 235 5 258 28 q 181 -18 213 -18 q 125 5 149 -18 z "},"\"":{"ha":414,"x_min":67,"x_max":347,"o":"m 75 697 l 67 972 l 164 972 l 156 697 l 75 697 m 257 697 l 250 972 l 347 972 l 339 697 l 257 697 z "},"#":{"ha":900,"x_min":42,"x_max":857,"o":"m 147 0 l 203 267 l 42 267 l 60 357 l 221 357 l 275 614 l 115 614 l 132 704 l 294 704 l 350 972 l 449 972 l 394 704 l 594 704 l 650 972 l 749 972 l 694 704 l 857 704 l 840 614 l 675 614 l 622 357 l 786 357 l 768 267 l 603 267 l 547 0 l 449 0 l 503 267 l 301 267 l 246 0 l 147 0 m 321 357 l 522 357 l 576 614 l 375 614 l 321 357 z "},"$":{"ha":703,"x_min":47,"x_max":646,"o":"m 47 196 l 143 238 q 356 86 196 86 q 483 129 435 86 q 532 247 532 172 q 498 347 532 304 q 414 413 464 389 q 304 468 364 438 q 194 528 244 499 q 110 613 144 558 q 76 742 76 668 q 140 907 76 839 q 311 986 203 975 l 311 1064 l 396 1064 l 396 988 q 549 920 492 975 q 629 804 607 865 l 535 765 q 353 888 479 888 q 232 846 275 888 q 189 742 189 804 q 236 637 189 681 q 350 563 283 593 q 484 497 417 532 q 599 401 551 463 q 646 254 646 340 q 578 72 646 147 q 396 -15 511 -3 l 396 -119 l 311 -119 l 311 -15 q 137 56 201 -6 q 47 196 72 117 z "},"%":{"ha":1051,"x_min":56,"x_max":994,"o":"m 99 0 l 839 972 l 953 972 l 211 0 l 99 0 m 269 565 q 117 626 178 565 q 56 776 56 688 q 117 928 56 865 q 268 990 178 990 q 425 928 363 990 q 488 776 488 867 q 425 626 488 688 q 269 565 363 565 m 271 651 q 360 688 326 651 q 393 776 393 724 q 358 867 393 831 q 269 904 324 904 q 183 867 217 904 q 149 776 149 831 q 183 688 149 724 q 271 651 218 651 m 563 193 q 624 344 563 282 q 776 407 685 407 q 932 345 869 407 q 994 193 994 283 q 932 43 994 104 q 778 -18 869 -18 q 624 42 685 -18 q 563 193 563 103 m 690 283 q 673 265 690 283 q 656 193 656 247 q 690 103 656 139 q 778 67 724 67 q 867 103 833 67 q 900 193 900 139 q 866 283 900 247 q 776 319 832 319 q 690 283 724 319 z "},"&":{"ha":871,"x_min":51,"x_max":846,"o":"m 767 -10 l 672 90 q 389 -18 564 -18 q 143 64 235 -18 q 51 269 51 146 q 222 532 51 435 q 117 747 117 640 q 188 919 117 847 q 382 990 258 990 q 580 923 507 990 q 653 746 653 856 q 597 594 653 660 q 435 468 542 529 l 665 246 q 702 342 693 296 q 711 464 711 389 l 817 464 q 744 168 817 282 l 846 67 l 767 -10 m 389 82 q 599 167 517 82 l 294 460 q 199 388 236 435 q 161 275 161 340 q 227 134 161 186 q 389 82 293 82 m 221 743 q 244 661 221 701 q 292 595 267 621 q 364 531 318 569 q 549 743 549 624 q 503 854 549 811 q 383 897 457 897 q 267 853 313 897 q 221 743 221 810 z "},"'":{"ha":232,"x_min":67,"x_max":164,"o":"m 75 697 l 67 972 l 164 972 l 156 697 l 75 697 z "},"(":{"ha":415,"x_min":93,"x_max":318,"o":"m 203 842 l 203 19 q 318 -103 203 -103 l 318 -199 q 93 25 93 -199 l 93 836 q 318 1060 93 1060 l 318 964 q 203 842 203 964 z "},")":{"ha":415,"x_min":97,"x_max":322,"o":"m 213 19 l 213 842 q 97 964 213 964 l 97 1060 q 322 836 322 1060 l 322 25 q 97 -199 322 -199 l 97 -103 q 213 19 213 -103 z "},"*":{"ha":594,"x_min":69,"x_max":524,"o":"m 69 818 l 113 889 l 253 806 l 253 972 l 339 972 l 339 804 l 481 889 l 522 819 l 378 735 l 524 651 l 481 581 l 339 664 l 339 499 l 253 499 l 253 664 l 113 581 l 69 650 l 214 733 l 69 818 z "},"+":{"ha":764,"x_min":56,"x_max":708,"o":"m 56 386 l 56 479 l 332 479 l 332 775 l 432 775 l 432 479 l 708 479 l 708 386 l 432 386 l 432 89 l 332 89 l 332 386 l 56 386 z "},",":{"ha":294,"x_min":68,"x_max":226,"o":"m 68 60 q 90 115 68 92 q 144 138 113 138 q 203 115 179 138 q 226 54 226 92 q 119 -168 226 -74 l 68 -118 q 136 -17 126 -74 q 87 10 106 -12 q 68 60 68 32 z "},"-":{"ha":469,"x_min":57,"x_max":411,"o":"m 57 367 l 57 469 l 411 469 l 411 367 l 57 367 z "},".":{"ha":296,"x_min":68,"x_max":225,"o":"m 92 5 q 80 16 92 5 q 68 60 68 28 q 92 115 68 92 q 147 138 115 138 q 202 115 179 138 q 225 60 225 92 q 202 5 225 28 q 147 -18 179 -18 q 92 5 115 -18 z "},"/":{"ha":592,"x_min":35,"x_max":557,"o":"m 35 -150 l 456 1042 l 557 1042 l 136 -150 l 35 -150 z "},":":{"ha":294,"x_min":68,"x_max":225,"o":"m 92 5 q 80 16 92 5 q 68 60 68 28 q 92 115 68 92 q 147 138 115 138 q 202 115 179 138 q 225 60 225 92 q 202 5 225 28 q 147 -18 179 -18 q 92 5 115 -18 m 92 543 q 80 555 92 543 q 68 599 68 567 q 92 653 68 631 q 147 676 115 676 q 202 653 179 676 q 225 599 225 631 q 202 543 225 567 q 147 519 179 519 q 92 543 115 519 z "},";":{"ha":294,"x_min":68,"x_max":226,"o":"m 92 543 q 80 555 92 543 q 68 599 68 567 q 92 653 68 631 q 147 676 115 676 q 202 653 179 676 q 225 599 225 631 q 202 543 225 567 q 147 519 179 519 q 92 543 115 519 m 68 60 q 90 115 68 92 q 144 138 113 138 q 203 115 179 138 q 226 54 226 92 q 119 -168 226 -74 l 68 -118 q 136 -17 128 -72 q 87 10 106 -12 q 68 60 68 32 z "},"<":{"ha":685,"x_min":60,"x_max":624,"o":"m 60 389 l 60 478 l 624 735 l 624 632 l 175 435 l 624 233 l 624 132 l 60 389 z "},"=":{"ha":764,"x_min":56,"x_max":708,"o":"m 56 496 l 56 588 l 708 588 l 708 496 l 56 496 m 56 265 l 56 358 l 708 358 l 708 265 l 56 265 z "},">":{"ha":685,"x_min":60,"x_max":625,"o":"m 625 478 l 625 389 l 60 132 l 60 233 l 510 435 l 60 632 l 60 735 l 625 478 z "},"?":{"ha":649,"x_min":54,"x_max":593,"o":"m 236 244 l 236 310 q 261 407 236 361 q 322 487 286 453 q 392 555 357 521 q 453 633 428 589 q 478 726 478 676 q 433 844 478 799 q 311 889 389 889 q 142 772 194 889 l 54 813 q 144 936 79 882 q 314 990 208 990 q 517 917 442 990 q 593 731 593 844 q 567 615 593 668 q 506 526 542 563 q 433 458 469 490 q 370 386 396 425 q 344 306 344 347 l 344 244 l 236 244 m 238 5 q 226 16 238 5 q 214 60 214 28 q 238 115 214 92 q 293 138 261 138 q 348 115 325 138 q 371 60 371 92 q 348 5 371 28 q 293 -18 325 -18 q 238 5 261 -18 z "},"@":{"ha":1238,"x_min":57,"x_max":1178,"o":"m 346 360 q 421 557 346 481 q 607 633 496 633 q 718 607 674 633 q 783 553 763 581 l 783 625 l 876 625 l 876 271 q 961 169 876 169 q 1051 231 1017 169 q 1085 417 1085 293 q 960 733 1085 611 q 625 856 835 856 q 285 714 417 856 q 153 367 153 572 q 283 20 153 157 q 617 -117 413 -117 q 876 -53 764 -117 l 918 -121 q 789 -178 869 -154 q 617 -201 708 -201 q 219 -40 382 -201 q 57 365 57 121 q 218 775 57 611 q 626 939 379 939 q 858 897 753 939 q 1032 785 963 856 q 1140 619 1101 714 q 1178 418 1178 525 q 1118 171 1178 256 q 954 86 1058 86 q 855 115 893 86 q 803 192 817 144 q 772 151 792 172 q 706 108 751 129 q 610 86 661 86 q 422 162 497 86 q 346 360 346 238 m 494 495 q 470 470 494 495 q 446 360 446 444 q 494 224 446 275 q 617 172 543 172 q 738 222 689 172 q 788 363 788 272 q 740 495 788 444 q 615 546 693 546 q 494 495 543 546 z "},"A":{"ha":876,"x_min":17,"x_max":858,"o":"m 628 315 l 247 315 l 131 0 l 17 0 l 381 972 l 494 972 l 858 0 l 744 0 l 628 315 m 594 413 l 438 849 l 282 413 l 594 413 z "},"B":{"ha":756,"x_min":110,"x_max":700,"o":"m 110 0 l 110 972 l 378 972 q 591 906 515 972 q 667 724 667 840 q 542 510 667 578 q 657 423 614 483 q 700 276 700 363 q 617 74 700 149 q 407 0 535 0 l 110 0 m 222 551 l 390 551 q 507 597 463 551 q 551 715 551 642 q 509 831 551 789 q 390 872 467 872 l 222 872 l 222 551 m 222 99 l 388 99 q 531 144 478 99 q 583 279 583 189 q 530 414 583 371 q 386 457 476 457 l 222 457 l 222 99 z "},"C":{"ha":911,"x_min":54,"x_max":861,"o":"m 826 192 l 861 93 q 800 49 836 71 q 693 4 764 26 q 547 -18 622 -18 q 194 126 335 -18 q 54 486 54 269 q 196 845 54 700 q 544 990 338 990 q 846 889 721 990 l 810 789 q 547 885 692 885 q 278 770 386 885 q 171 486 171 656 q 277 201 171 314 q 550 88 383 88 q 826 192 701 88 z "},"D":{"ha":885,"x_min":110,"x_max":831,"o":"m 110 0 l 110 972 l 310 972 q 694 844 557 972 q 831 486 831 715 q 694 124 831 247 q 310 0 557 0 l 110 0 m 222 100 l 332 100 q 613 199 511 100 q 715 486 715 299 q 612 769 715 667 q 332 871 508 871 l 222 871 l 222 100 z "},"E":{"ha":658,"x_min":110,"x_max":586,"o":"m 110 0 l 110 972 l 571 972 l 571 869 l 222 869 l 222 546 l 526 546 l 526 444 l 222 444 l 222 101 l 586 101 l 586 0 l 110 0 z "},"F":{"ha":649,"x_min":110,"x_max":571,"o":"m 110 0 l 110 972 l 571 972 l 571 869 l 222 869 l 222 536 l 528 536 l 528 435 l 222 435 l 222 0 l 110 0 z "},"G":{"ha":1022,"x_min":54,"x_max":940,"o":"m 546 990 q 904 849 767 990 l 832 774 q 549 885 717 885 q 277 771 382 885 q 172 485 172 657 q 278 198 172 310 q 547 86 383 86 q 686 106 621 86 q 781 147 751 126 q 832 188 811 167 l 832 392 l 615 392 l 615 490 l 940 490 l 940 139 q 543 -18 785 -18 q 194 124 333 -18 q 54 485 54 265 q 194 845 54 700 q 546 990 333 990 z "},"H":{"ha":961,"x_min":110,"x_max":851,"o":"m 110 0 l 110 972 l 222 972 l 222 546 l 739 546 l 739 972 l 851 972 l 851 0 l 739 0 l 739 443 l 222 443 l 222 0 l 110 0 z "},"I":{"ha":332,"x_min":110,"x_max":222,"o":"m 110 0 l 110 972 l 222 972 l 222 0 l 110 0 z "},"J":{"ha":479,"x_min":31,"x_max":369,"o":"m 31 6 l 43 106 q 135 93 89 93 q 257 235 257 93 l 257 972 l 369 972 l 369 219 q 310 50 369 108 q 147 -8 251 -8 q 31 6 72 -8 z "},"K":{"ha":785,"x_min":110,"x_max":763,"o":"m 110 0 l 110 972 l 222 972 l 222 525 l 610 972 l 746 972 l 338 507 l 763 0 l 625 0 l 222 489 l 222 0 l 110 0 z "},"L":{"ha":624,"x_min":110,"x_max":586,"o":"m 110 0 l 110 972 l 222 972 l 222 101 l 586 101 l 586 0 l 110 0 z "},"M":{"ha":1204,"x_min":108,"x_max":1094,"o":"m 253 972 l 601 222 l 951 972 l 1094 972 l 1094 0 l 986 0 l 986 803 l 657 89 l 546 89 l 217 803 l 217 0 l 108 0 l 108 972 l 253 972 z "},"N":{"ha":978,"x_min":108,"x_max":868,"o":"m 108 0 l 108 972 l 221 972 l 757 199 l 757 972 l 868 972 l 868 0 l 757 0 l 221 771 l 221 0 l 108 0 z "},"O":{"ha":1099,"x_min":53,"x_max":1044,"o":"m 53 486 q 195 846 53 701 q 549 990 338 990 q 902 845 760 990 q 1044 486 1044 700 q 902 126 1044 271 q 547 -18 760 -18 q 194 126 336 -18 q 53 486 53 269 m 169 486 q 278 201 169 314 q 549 88 386 88 q 819 201 711 88 q 928 486 928 314 q 819 771 928 657 q 549 885 710 885 q 278 771 388 885 q 169 486 169 657 z "},"P":{"ha":706,"x_min":110,"x_max":667,"o":"m 110 0 l 110 972 l 376 972 q 588 897 510 972 q 667 692 667 822 q 586 484 667 561 q 376 407 506 407 l 222 407 l 222 0 l 110 0 m 222 507 l 367 507 q 502 557 453 507 q 551 692 551 607 q 503 824 551 775 q 367 872 454 872 l 222 872 l 222 507 z "},"Q":{"ha":1099,"x_min":53,"x_max":1044,"o":"m 53 486 q 195 846 53 701 q 549 990 338 990 q 902 845 760 990 q 1044 486 1044 700 q 926 156 1044 293 l 1029 54 l 956 -19 l 851 82 q 547 -18 724 -18 q 194 126 336 -18 q 53 486 53 269 m 169 486 q 278 201 169 314 q 549 88 386 88 q 772 158 681 88 l 664 263 l 736 338 l 844 233 q 928 486 928 333 q 819 771 928 657 q 549 885 710 885 q 278 771 388 885 q 169 486 169 657 z "},"R":{"ha":760,"x_min":110,"x_max":732,"o":"m 110 0 l 110 972 l 357 972 q 582 901 504 972 q 660 703 660 831 q 616 542 660 613 q 490 446 572 472 l 732 0 l 607 0 l 388 422 l 222 422 l 222 0 l 110 0 m 222 521 l 357 521 q 542 701 542 521 q 350 872 542 872 l 222 872 l 222 521 z "},"S":{"ha":703,"x_min":47,"x_max":646,"o":"m 47 196 l 143 238 q 356 86 196 86 q 483 129 435 86 q 532 247 532 172 q 498 347 532 304 q 414 413 464 389 q 304 468 364 438 q 194 528 244 499 q 110 613 144 558 q 76 742 76 668 q 152 919 76 849 q 354 990 228 990 q 537 931 469 990 q 629 804 604 872 l 535 765 q 353 888 479 888 q 232 846 275 888 q 189 742 189 804 q 236 637 189 681 q 350 563 283 593 q 484 497 417 532 q 599 401 551 463 q 646 254 646 340 q 565 59 646 136 q 351 -18 485 -18 q 149 46 224 -18 q 47 196 75 110 z "},"T":{"ha":710,"x_min":29,"x_max":665,"o":"m 292 0 l 292 869 l 29 869 l 29 972 l 665 972 l 665 869 l 404 869 l 404 0 l 292 0 z "},"U":{"ha":933,"x_min":104,"x_max":829,"o":"m 467 -18 q 199 81 294 -18 q 104 349 104 181 l 104 972 l 217 972 l 217 350 q 281 156 217 226 q 467 86 346 86 q 653 157 588 86 q 718 351 718 228 l 718 972 l 829 972 l 829 350 q 733 83 829 183 q 467 -18 638 -18 z "},"V":{"ha":885,"x_min":13,"x_max":872,"o":"m 503 0 l 382 0 l 13 972 l 136 972 l 442 133 l 749 972 l 872 972 l 503 0 z "},"W":{"ha":1310,"x_min":15,"x_max":1293,"o":"m 890 0 l 654 807 l 418 0 l 293 0 l 15 972 l 136 972 l 360 143 l 599 972 l 710 972 l 949 143 l 1174 972 l 1293 972 l 1017 0 l 890 0 z "},"X":{"ha":838,"x_min":18,"x_max":818,"o":"m 18 0 l 349 503 l 42 972 l 176 972 l 418 589 l 661 972 l 793 972 l 486 503 l 818 0 l 690 0 l 415 418 l 144 0 l 18 0 z "},"Y":{"ha":739,"x_min":13,"x_max":726,"o":"m 314 0 l 314 456 l 13 972 l 142 972 l 369 563 l 601 972 l 726 972 l 425 456 l 425 0 l 314 0 z "},"Z":{"ha":825,"x_min":49,"x_max":769,"o":"m 49 0 l 49 82 l 621 871 l 67 871 l 67 972 l 767 972 l 767 889 l 193 101 l 769 101 l 769 0 l 49 0 z "},"[":{"ha":415,"x_min":93,"x_max":318,"o":"m 93 -199 l 93 1060 l 318 1060 l 318 964 l 203 964 l 203 -103 l 318 -103 l 318 -199 l 93 -199 z "},"\\":{"ha":592,"x_min":35,"x_max":557,"o":"m 136 1042 l 557 -150 l 456 -150 l 35 1042 l 136 1042 z "},"]":{"ha":424,"x_min":97,"x_max":322,"o":"m 322 1060 l 322 -199 l 97 -199 l 97 -103 l 213 -103 l 213 964 l 97 964 l 97 1060 l 322 1060 z "},"^":{"ha":726,"x_min":63,"x_max":664,"o":"m 63 442 l 315 972 l 410 972 l 664 442 l 554 442 l 363 861 l 171 442 l 63 442 z "},"_":{"ha":842,"x_min":46,"x_max":796,"o":"m 46 -40 l 796 -40 l 796 -132 l 46 -132 l 46 -40 z "},"`":{"ha":679,"x_min":231,"x_max":450,"o":"m 350 1007 l 450 810 l 353 810 l 231 1007 l 350 1007 z "},"a":{"ha":708,"x_min":47,"x_max":625,"o":"m 47 222 q 125 392 47 325 q 325 460 203 460 q 440 440 389 460 q 515 394 490 421 l 515 483 q 468 601 515 558 q 340 643 421 643 q 128 581 233 643 l 83 661 q 350 740 210 740 q 558 669 492 740 q 625 476 625 599 l 625 0 l 531 0 l 518 61 q 322 -18 449 -18 q 125 49 203 -18 q 47 222 47 117 m 208 330 q 183 309 208 330 q 158 224 158 288 q 208 117 158 160 q 340 74 258 74 q 469 116 419 74 q 519 224 519 158 q 470 332 519 292 q 339 372 421 372 q 208 330 258 372 z "},"b":{"ha":850,"x_min":94,"x_max":804,"o":"m 94 0 l 94 1004 l 204 1004 l 204 606 q 296 696 231 651 q 460 740 361 740 q 708 633 613 740 q 804 360 804 526 q 705 88 804 194 q 451 -18 606 -18 q 200 114 290 -18 l 200 0 l 94 0 m 200 358 q 267 161 200 242 q 444 81 335 81 q 621 158 550 81 q 692 358 692 235 q 623 561 692 482 q 447 640 554 640 q 271 565 342 640 q 200 358 200 489 z "},"c":{"ha":711,"x_min":46,"x_max":669,"o":"m 669 642 l 632 547 q 418 639 544 639 q 233 559 306 639 q 160 361 160 479 q 235 163 160 244 q 421 82 310 82 q 636 178 540 82 l 669 85 q 622 44 650 64 q 535 3 593 24 q 417 -18 478 -18 q 151 91 257 -18 q 46 361 46 200 q 152 631 46 522 q 415 740 258 740 q 669 642 567 740 z "},"d":{"ha":850,"x_min":46,"x_max":756,"o":"m 756 1004 l 756 0 l 649 0 l 649 114 q 399 -18 558 -18 q 144 88 243 -18 q 46 360 46 194 q 142 634 46 528 q 390 740 238 740 q 554 695 489 740 q 644 606 619 650 l 644 1004 l 756 1004 m 649 358 q 578 565 649 489 q 403 640 508 640 q 227 561 296 640 q 158 358 158 482 q 228 158 158 235 q 404 81 299 81 q 582 161 515 81 q 649 358 649 242 z "},"e":{"ha":785,"x_min":47,"x_max":740,"o":"m 47 358 q 149 634 47 528 q 397 740 250 740 q 647 638 554 740 q 740 371 740 536 q 739 338 740 351 l 160 338 q 233 149 161 218 q 419 79 306 79 q 644 192 564 79 l 717 139 q 604 29 679 76 q 418 -18 529 -18 q 151 87 254 -18 q 47 358 47 192 m 165 419 l 628 419 q 557 587 622 528 q 397 646 492 646 q 239 583 307 646 q 165 419 171 519 z "},"f":{"ha":408,"x_min":36,"x_max":389,"o":"m 117 0 l 117 629 l 36 629 l 36 722 l 117 722 l 117 760 q 181 943 117 886 q 343 1000 244 1000 l 389 997 l 389 901 q 354 904 371 904 q 228 760 228 904 l 228 722 l 382 722 l 382 629 l 228 629 l 228 0 l 117 0 z "},"g":{"ha":843,"x_min":46,"x_max":754,"o":"m 133 -194 l 172 -108 q 390 -168 272 -168 q 574 -116 503 -168 q 644 50 644 -64 l 644 114 q 619 81 635 99 q 574 39 604 64 q 497 -2 543 14 q 394 -18 450 -18 q 143 88 240 -18 q 46 360 46 193 q 143 633 46 526 q 393 740 240 740 q 556 696 490 740 q 649 606 621 651 l 649 722 l 754 722 l 754 100 q 392 -267 754 -267 q 133 -194 250 -267 m 649 360 q 578 564 649 488 q 401 640 507 640 q 226 562 296 640 q 157 360 157 483 q 228 159 157 236 q 404 82 299 82 q 581 161 514 82 q 649 360 649 240 z "},"h":{"ha":761,"x_min":94,"x_max":674,"o":"m 418 740 q 607 660 540 740 q 674 451 674 579 l 674 0 l 564 0 l 564 456 q 516 590 564 540 q 393 640 468 640 q 257 584 310 640 q 204 439 204 528 l 204 0 l 94 0 l 94 1004 l 204 1004 l 204 618 q 290 705 232 669 q 418 740 347 740 z "},"i":{"ha":299,"x_min":74,"x_max":225,"o":"m 94 0 l 94 722 l 204 722 l 204 0 l 94 0 m 74 908 q 95 961 74 939 q 149 983 117 983 q 203 962 181 983 q 225 908 225 940 q 203 854 225 876 q 149 832 181 832 q 95 854 117 832 q 74 908 74 876 z "},"j":{"ha":299,"x_min":-58,"x_max":225,"o":"m 94 -21 l 94 722 l 204 722 l 204 -24 q -21 -265 204 -265 l -58 -262 l -58 -168 q -28 -169 -40 -169 q 94 -21 94 -169 m 74 908 q 95 961 74 939 q 149 983 117 983 q 203 962 181 983 q 225 908 225 940 q 203 854 225 876 q 149 832 181 832 q 95 854 117 832 q 74 908 74 876 z "},"k":{"ha":664,"x_min":94,"x_max":656,"o":"m 94 0 l 94 1004 l 204 1004 l 204 413 l 499 722 l 638 722 l 326 399 l 656 0 l 514 0 l 204 385 l 204 0 l 94 0 z "},"l":{"ha":299,"x_min":94,"x_max":204,"o":"m 94 0 l 94 1004 l 204 1004 l 204 0 l 94 0 z "},"m":{"ha":1193,"x_min":94,"x_max":1104,"o":"m 1104 468 l 1104 0 l 994 0 l 994 435 q 832 640 994 640 q 703 586 753 640 q 654 433 654 532 l 654 0 l 544 0 l 544 456 q 500 591 544 542 q 379 640 456 640 q 255 584 306 640 q 204 438 204 528 l 204 0 l 94 0 l 94 722 l 203 722 l 203 618 q 281 704 225 668 q 407 740 336 740 q 542 705 486 740 q 625 608 599 669 q 857 740 692 740 q 1040 665 975 740 q 1104 468 1104 590 z "},"n":{"ha":761,"x_min":94,"x_max":672,"o":"m 418 740 q 606 660 540 740 q 672 451 672 579 l 672 0 l 563 0 l 563 456 q 515 590 563 540 q 392 640 467 640 q 256 584 308 640 q 204 439 204 528 l 204 0 l 94 0 l 94 722 l 203 722 l 203 618 q 288 705 231 669 q 418 740 346 740 z "},"o":{"ha":846,"x_min":46,"x_max":800,"o":"m 158 361 q 233 160 158 239 q 422 82 307 82 q 614 161 539 82 q 689 361 689 240 q 614 561 689 482 q 422 640 539 640 q 233 560 307 640 q 158 361 158 481 m 153 90 q 99 143 153 90 q 46 361 46 197 q 153 633 46 525 q 424 740 261 740 q 693 632 586 740 q 800 361 800 524 q 692 90 800 199 q 422 -18 585 -18 q 153 90 260 -18 z "},"p":{"ha":851,"x_min":94,"x_max":804,"o":"m 94 -260 l 94 722 l 200 722 l 200 608 q 451 740 290 740 q 705 634 606 740 q 804 363 804 528 q 708 88 804 194 q 460 -18 613 -18 q 296 26 361 -18 q 204 117 231 71 l 204 -260 l 94 -260 m 200 363 q 271 158 200 233 q 447 82 342 82 q 623 160 554 82 q 692 363 692 239 q 622 564 692 488 q 444 640 551 640 q 267 560 335 640 q 200 363 200 479 z "},"q":{"ha":851,"x_min":47,"x_max":756,"o":"m 756 722 l 756 -260 l 646 -260 l 646 117 q 556 27 621 72 q 392 -18 490 -18 q 142 88 238 -18 q 47 363 47 194 q 146 634 47 528 q 400 740 244 740 q 650 608 560 740 l 650 722 l 756 722 m 650 363 q 583 560 650 479 q 406 640 517 640 q 228 564 299 640 q 158 363 158 488 q 228 160 158 239 q 403 82 297 82 q 579 158 508 82 q 650 363 650 233 z "},"r":{"ha":446,"x_min":94,"x_max":418,"o":"m 418 740 l 418 631 q 204 346 204 631 l 204 0 l 94 0 l 94 722 l 203 722 l 203 601 q 281 700 222 660 q 418 740 340 740 z "},"s":{"ha":579,"x_min":40,"x_max":538,"o":"m 40 136 l 117 186 q 297 75 176 75 q 392 106 354 75 q 431 190 431 138 q 393 267 431 236 q 303 317 356 297 q 197 361 250 338 q 106 431 143 385 q 68 544 68 476 q 134 687 68 633 q 300 740 200 740 q 448 697 390 740 q 524 601 506 653 l 443 556 q 293 649 397 649 q 208 622 242 649 q 174 549 174 594 q 211 474 174 504 q 302 425 249 444 q 409 383 356 406 q 500 313 463 360 q 538 196 538 265 q 468 42 538 101 q 292 -18 399 -18 q 40 136 113 -18 z "},"t":{"ha":410,"x_min":18,"x_max":376,"o":"m 103 722 l 103 874 l 213 874 l 213 722 l 371 722 l 371 629 l 213 629 l 213 257 q 242 125 213 160 q 346 90 272 90 l 376 92 l 376 -6 q 310 -10 347 -10 q 103 247 103 -10 l 103 629 l 18 629 l 18 722 l 103 722 z "},"u":{"ha":754,"x_min":88,"x_max":667,"o":"m 343 -18 q 154 63 221 -18 q 88 271 88 143 l 88 722 l 197 722 l 197 267 q 245 132 197 182 q 368 82 293 82 q 503 138 451 82 q 556 283 556 194 l 556 722 l 667 722 l 667 0 l 557 0 l 557 104 q 472 17 531 53 q 343 -18 414 -18 z "},"v":{"ha":696,"x_min":8,"x_max":686,"o":"m 408 0 l 288 0 l 8 722 l 126 722 l 349 124 l 569 722 l 686 722 l 408 0 z "},"w":{"ha":1133,"x_min":10,"x_max":1124,"o":"m 758 0 l 567 574 l 374 0 l 253 0 l 10 722 l 129 722 l 318 128 q 513 722 319 132 l 621 722 l 814 128 l 1004 722 l 1124 722 l 879 0 l 758 0 z "},"x":{"ha":700,"x_min":15,"x_max":685,"o":"m 558 0 l 350 292 l 140 0 l 15 0 l 285 374 l 35 722 l 164 722 l 350 451 l 536 722 l 665 722 l 415 374 l 685 0 l 558 0 z "},"y":{"ha":706,"x_min":8,"x_max":696,"o":"m 308 -249 l 199 -249 l 303 7 l 8 722 l 128 722 l 357 142 l 579 722 l 696 722 l 308 -249 z "},"z":{"ha":642,"x_min":44,"x_max":594,"o":"m 44 0 l 44 78 l 458 628 l 57 628 l 57 722 l 588 722 l 588 643 l 175 93 l 594 93 l 594 0 l 44 0 z "},"{":{"ha":474,"x_min":50,"x_max":376,"o":"m 151 25 l 151 224 q 50 381 151 381 l 50 481 q 126 517 101 481 q 151 638 151 554 l 151 836 q 376 1060 151 1060 l 376 964 q 261 842 261 964 l 261 613 q 242 510 261 553 q 203 451 222 467 q 168 431 185 436 q 203 410 185 425 q 242 351 222 394 q 261 249 261 308 l 261 19 q 376 -103 261 -103 l 376 -199 q 151 25 151 -199 z "},"|":{"ha":350,"x_min":122,"x_max":228,"o":"m 122 -286 l 122 1088 l 228 1088 l 228 -286 l 122 -286 z "},"}":{"ha":474,"x_min":97,"x_max":424,"o":"m 322 224 l 322 25 q 97 -199 322 -199 l 97 -103 q 213 19 213 -103 l 213 249 q 232 351 213 308 q 270 410 251 394 q 306 431 289 425 q 270 451 289 436 q 232 510 251 467 q 213 613 213 553 l 213 842 q 97 964 213 964 l 97 1060 q 322 836 322 1060 l 322 638 q 347 517 322 554 q 424 481 372 481 l 424 381 q 322 224 322 381 z "},"~":{"ha":744,"x_min":63,"x_max":682,"o":"m 503 425 q 567 453 544 425 q 590 521 589 481 l 682 521 q 635 383 682 440 q 507 326 589 326 q 371 374 451 326 q 242 422 290 422 q 177 395 199 422 q 153 326 156 368 l 63 326 q 110 466 63 411 q 239 521 157 521 q 383 473 297 521 q 503 425 469 425 z "},"¡":{"ha":358,"x_min":101,"x_max":258,"o":"m 228 515 l 238 -212 l 122 -212 l 132 515 l 228 515 m 235 755 q 247 743 235 755 q 258 700 258 732 q 235 645 258 668 q 179 622 211 622 q 124 645 147 622 q 101 700 101 668 q 124 755 101 732 q 179 778 147 778 q 235 755 211 778 z "},"¢":{"ha":719,"x_min":47,"x_max":671,"o":"m 378 0 l 378 92 q 140 211 232 106 q 47 468 47 317 q 141 725 47 618 q 378 846 235 832 l 378 972 l 464 972 l 464 844 q 588 808 535 838 q 669 749 642 778 l 633 654 q 419 747 544 747 q 234 667 307 747 q 161 469 161 588 q 236 270 161 351 q 422 189 311 189 q 636 285 544 189 l 671 192 q 464 92 590 106 l 464 0 l 378 0 z "},"£":{"ha":771,"x_min":54,"x_max":706,"o":"m 67 438 l 67 531 l 147 531 l 147 710 q 223 913 147 835 q 428 990 299 990 q 600 935 535 990 q 685 813 665 879 l 594 772 q 536 851 578 817 q 429 885 494 885 q 303 837 346 885 q 260 704 260 789 l 260 531 l 493 531 l 493 438 l 260 438 l 260 100 l 706 100 l 706 0 l 54 0 l 54 100 l 147 100 l 147 438 l 67 438 z "},"¥":{"ha":764,"x_min":25,"x_max":739,"o":"m 106 454 l 106 538 l 279 538 l 25 972 l 154 972 l 382 563 l 614 972 l 739 972 l 485 538 l 658 538 l 658 454 l 438 454 l 438 329 l 658 329 l 658 247 l 438 247 l 438 0 l 326 0 l 326 247 l 106 247 l 106 329 l 326 329 l 326 454 l 106 454 z "},"§":{"ha":663,"x_min":49,"x_max":613,"o":"m 613 321 q 577 203 613 254 q 486 131 542 153 q 589 -65 589 50 q 517 -232 589 -168 q 326 -296 446 -296 q 147 -242 213 -296 q 58 -122 82 -189 l 149 -85 q 326 -194 199 -194 q 438 -160 399 -194 q 476 -64 476 -125 q 361 92 476 24 l 165 211 q 49 401 49 279 q 84 517 49 467 q 175 590 119 568 q 72 786 72 671 q 144 953 72 889 q 335 1018 215 1018 q 514 964 449 1018 q 603 843 579 910 l 513 806 q 335 917 463 917 q 224 881 263 917 q 185 785 185 846 q 300 629 185 697 l 454 539 q 613 321 613 443 m 508 318 q 404 454 508 394 l 274 526 q 188 489 222 525 q 153 403 153 453 q 215 294 153 331 l 388 194 q 474 232 439 196 q 508 318 508 268 z "},"¨":{"ha":679,"x_min":156,"x_max":522,"o":"m 156 907 q 176 956 156 935 q 225 976 196 976 q 274 956 254 976 q 294 907 294 936 q 275 858 294 878 q 225 838 256 838 q 176 858 196 838 q 156 907 156 878 m 403 858 q 393 868 403 858 q 383 907 383 878 q 403 956 383 936 q 453 976 424 976 q 502 956 482 976 q 522 907 522 935 q 502 858 522 878 q 453 838 482 838 q 403 858 422 838 z "},"©":{"ha":1117,"x_min":60,"x_max":1056,"o":"m 60 483 q 201 843 60 696 q 554 990 343 990 q 913 844 771 990 q 1056 483 1056 697 q 915 125 1056 269 q 557 -19 774 -19 q 201 125 342 -19 q 60 483 60 269 m 149 483 q 263 181 149 301 q 557 60 378 60 q 852 181 738 60 q 967 485 967 301 q 851 788 967 667 q 554 910 736 910 q 263 788 378 910 q 149 483 149 667 m 376 291 q 341 329 376 291 q 306 482 306 367 q 376 674 306 597 q 563 751 446 751 q 769 651 693 751 l 708 594 q 563 665 650 665 q 442 615 485 665 q 400 483 400 564 q 442 352 400 403 q 563 301 485 301 q 708 372 650 301 l 769 317 q 563 215 694 215 q 376 291 446 215 z "},"ª":{"ha":567,"x_min":61,"x_max":499,"o":"m 61 600 q 120 730 61 679 q 272 781 179 781 q 411 736 358 781 l 411 793 q 376 879 411 849 q 283 910 342 910 q 122 863 208 910 l 86 929 q 292 990 183 990 q 449 936 399 990 q 499 788 499 882 l 499 429 l 424 429 l 414 471 q 269 417 363 417 q 119 468 178 417 q 61 600 61 519 m 149 601 q 186 523 149 554 q 283 492 224 492 q 378 522 342 492 q 415 601 415 553 q 378 678 415 649 q 283 708 342 708 q 186 678 224 708 q 149 601 149 647 z "},"«":{"ha":594,"x_min":47,"x_max":547,"o":"m 267 406 l 440 661 l 547 661 l 374 406 l 547 151 l 440 151 l 267 406 m 219 151 l 47 406 l 219 661 l 326 661 l 154 406 l 326 151 l 219 151 z "},"®":{"ha":628,"x_min":26,"x_max":599,"o":"m 321 711 l 282 711 l 282 597 l 217 597 l 217 897 l 321 897 q 397 873 369 897 q 424 806 424 849 q 378 726 424 747 l 435 597 l 367 597 l 321 711 m 321 840 l 282 840 l 282 768 l 321 768 q 356 804 356 768 q 321 840 356 840 m 106 546 q 66 586 106 546 q 26 747 26 626 q 105 949 26 868 q 310 1031 183 1031 q 519 950 440 1031 q 599 749 599 869 q 520 547 599 629 q 313 465 442 465 q 106 546 185 465 m 90 747 q 151 587 90 650 q 313 524 211 524 q 475 586 415 524 q 535 749 535 649 q 474 910 535 849 q 310 971 414 971 q 150 908 210 971 q 90 747 90 846 z "},"¯":{"ha":626,"x_min":144,"x_max":481,"o":"m 144 874 l 144 961 l 481 961 l 481 874 l 144 874 z "},"°":{"ha":494,"x_min":43,"x_max":450,"o":"m 43 789 q 101 931 43 872 q 246 990 158 990 q 392 932 335 990 q 450 790 450 874 q 393 647 450 704 q 246 589 336 589 q 99 647 156 589 q 43 789 43 704 m 163 874 q 147 857 163 874 q 131 789 131 840 q 162 704 131 738 q 246 671 193 671 q 330 705 299 671 q 361 790 361 739 q 330 875 361 842 q 246 908 299 908 q 163 874 194 908 z "},"²":{"ha":475,"x_min":64,"x_max":419,"o":"m 65 422 l 65 478 q 92 565 65 524 q 156 638 118 607 q 231 697 193 668 q 294 756 268 725 q 321 818 321 788 q 297 878 321 854 q 232 901 272 901 q 136 829 167 901 l 64 858 q 124 947 82 910 q 235 983 165 983 q 363 938 315 983 q 411 819 411 892 q 387 740 411 778 q 327 674 363 703 q 256 620 292 646 q 194 563 219 594 q 165 500 168 532 l 419 500 l 419 422 l 65 422 z "},"³":{"ha":474,"x_min":54,"x_max":424,"o":"m 406 972 l 406 906 l 261 749 q 376 703 329 747 q 424 585 424 658 q 370 458 424 504 q 236 411 317 411 q 54 536 104 411 l 125 567 q 235 492 158 492 q 305 516 278 492 q 332 586 332 540 q 218 683 332 683 l 167 683 l 167 751 l 297 893 l 79 893 l 79 972 l 406 972 z "},"´":{"ha":679,"x_min":229,"x_max":449,"o":"m 229 810 l 328 1007 l 449 1007 l 325 810 l 229 810 z "},"¶":{"ha":701,"x_min":58,"x_max":600,"o":"m 319 -62 l 319 457 q 134 533 210 458 q 58 715 58 608 q 133 897 58 822 q 315 972 208 972 l 414 972 l 414 -62 l 319 -62 m 504 -62 l 504 972 l 600 972 l 600 -62 l 504 -62 z "},"·":{"ha":314,"x_min":78,"x_max":235,"o":"m 101 381 q 89 392 101 381 q 78 436 78 404 q 101 491 78 468 q 156 514 124 514 q 211 491 188 514 q 235 436 235 468 q 211 381 235 404 q 156 357 188 357 q 101 381 124 357 z "},"¸":{"ha":626,"x_min":203,"x_max":418,"o":"m 249 14 l 318 14 l 307 -65 q 388 -103 358 -71 q 418 -183 418 -135 q 374 -281 418 -249 q 261 -312 329 -312 q 203 -306 224 -312 l 215 -235 q 257 -239 238 -239 q 335 -182 335 -239 q 256 -125 335 -125 l 229 -128 l 249 14 z "},"¹":{"ha":353,"x_min":64,"x_max":246,"o":"m 88 856 l 64 931 l 174 972 l 246 972 l 246 422 l 157 422 l 157 883 l 88 856 z "},"º":{"ha":650,"x_min":38,"x_max":608,"o":"m 183 849 q 155 820 183 849 q 128 701 128 790 q 183 554 128 613 q 324 496 238 496 q 463 555 408 496 q 518 703 518 614 q 463 850 518 792 q 324 908 408 908 q 183 849 238 908 m 38 701 q 119 908 38 826 q 325 990 201 990 q 528 908 447 990 q 608 703 608 826 q 527 499 608 581 q 324 417 446 417 q 119 497 200 417 q 38 701 38 578 z "},"»":{"ha":594,"x_min":47,"x_max":547,"o":"m 154 661 l 328 406 l 154 151 l 47 151 l 221 406 l 47 661 l 154 661 m 547 406 l 375 151 l 268 151 l 440 406 l 268 661 l 375 661 l 547 406 z "},"¼":{"ha":1096,"x_min":104,"x_max":1047,"o":"m 329 -57 l 228 -57 l 768 1029 l 869 1029 l 329 -57 m 888 0 l 888 110 l 624 110 l 624 178 l 886 550 l 976 550 l 976 189 l 1047 189 l 1047 110 l 976 110 l 976 0 l 888 0 m 717 189 l 888 189 l 888 436 l 717 189 m 128 856 l 104 931 l 213 972 l 286 972 l 286 422 l 196 422 l 196 883 l 128 856 z "},"½":{"ha":1110,"x_min":104,"x_max":1032,"o":"m 128 856 l 104 931 l 213 972 l 286 972 l 286 422 l 196 422 l 196 883 l 128 856 m 301 -57 l 200 -57 l 742 1029 l 843 1029 l 301 -57 m 678 0 l 678 56 q 718 163 678 111 q 806 246 758 214 q 893 318 853 278 q 933 396 933 358 q 909 456 933 432 q 844 479 885 479 q 749 407 779 479 l 676 436 q 736 524 694 488 q 847 561 778 561 q 976 515 928 561 q 1024 397 1024 469 q 999 318 1024 356 q 940 252 975 281 q 868 198 904 224 q 806 141 832 172 q 778 78 781 110 l 1032 78 l 1032 0 l 678 0 z "},"¾":{"ha":1172,"x_min":75,"x_max":1101,"o":"m 406 -57 l 304 -57 l 846 1029 l 947 1029 l 406 -57 m 942 0 l 942 110 l 678 110 l 678 178 l 940 550 l 1031 550 l 1031 189 l 1101 189 l 1101 110 l 1031 110 l 1031 0 l 942 0 m 771 189 l 942 189 l 942 436 l 771 189 m 426 972 l 426 906 l 282 749 q 397 703 350 747 q 444 585 444 658 q 391 458 444 504 q 257 411 338 411 q 75 536 125 411 l 146 567 q 256 492 179 492 q 326 516 299 492 q 353 586 353 540 q 239 683 353 683 l 188 683 l 188 751 l 318 893 l 100 893 l 100 972 l 426 972 z "},"¿":{"ha":649,"x_min":54,"x_max":593,"o":"m 411 514 l 411 449 q 386 351 411 397 q 326 272 361 306 q 255 203 290 238 q 194 126 219 169 q 169 32 169 82 q 214 -85 169 -40 q 336 -131 258 -131 q 507 -14 454 -131 l 593 -54 q 504 -177 568 -124 q 333 -231 440 -231 q 130 -158 206 -231 q 54 28 54 -86 q 80 143 54 90 q 142 232 106 196 q 215 301 178 268 q 277 372 251 333 q 303 453 303 411 l 303 514 l 411 514 m 410 754 q 422 742 410 754 q 433 699 433 731 q 410 644 433 667 q 356 621 388 621 q 301 644 324 621 q 278 699 278 667 q 301 754 278 731 q 356 778 324 778 q 410 754 388 778 z "},"À":{"ha":876,"x_min":17,"x_max":858,"o":"m 628 315 l 247 315 l 131 0 l 17 0 l 381 972 l 494 972 l 858 0 l 744 0 l 628 315 m 594 413 l 438 849 l 282 413 l 594 413 m 386 1231 l 486 1033 l 389 1033 l 267 1231 l 386 1231 z "},"Á":{"ha":876,"x_min":17,"x_max":858,"o":"m 628 315 l 247 315 l 131 0 l 17 0 l 381 972 l 494 972 l 858 0 l 744 0 l 628 315 m 594 413 l 438 849 l 282 413 l 594 413 m 383 1033 l 482 1231 l 603 1231 l 479 1033 l 383 1033 z "},"Â":{"ha":876,"x_min":17,"x_max":858,"o":"m 628 315 l 247 315 l 131 0 l 17 0 l 381 972 l 494 972 l 858 0 l 744 0 l 628 315 m 594 413 l 438 849 l 282 413 l 594 413 m 524 1040 l 438 1154 l 353 1040 l 249 1040 l 379 1221 l 496 1221 l 626 1040 l 524 1040 z "},"Ã":{"ha":876,"x_min":17,"x_max":858,"o":"m 628 315 l 247 315 l 131 0 l 17 0 l 381 972 l 494 972 l 858 0 l 744 0 l 628 315 m 594 413 l 438 849 l 282 413 l 594 413 m 528 1053 q 433 1084 489 1053 q 353 1115 378 1115 q 315 1099 329 1115 q 300 1054 301 1082 l 221 1054 q 257 1160 221 1121 q 351 1200 293 1200 q 446 1169 389 1200 q 525 1139 503 1139 q 563 1156 549 1139 q 578 1200 576 1172 l 656 1200 q 620 1093 656 1133 q 528 1053 585 1053 z "},"Ä":{"ha":876,"x_min":17,"x_max":858,"o":"m 628 315 l 247 315 l 131 0 l 17 0 l 381 972 l 494 972 l 858 0 l 744 0 l 628 315 m 594 413 l 438 849 l 282 413 l 594 413 m 257 1128 q 277 1176 257 1156 q 326 1197 297 1197 q 376 1177 356 1197 q 396 1128 396 1157 q 376 1078 396 1099 q 326 1058 357 1058 q 277 1078 297 1058 q 257 1128 257 1099 m 504 1078 q 494 1089 504 1078 q 485 1128 485 1099 q 505 1177 485 1157 q 554 1197 525 1197 q 603 1176 583 1197 q 624 1128 624 1156 q 603 1078 624 1099 q 554 1058 583 1058 q 504 1078 524 1058 z "},"Å":{"ha":876,"x_min":17,"x_max":858,"o":"m 628 315 l 247 315 l 131 0 l 17 0 l 381 972 l 494 972 l 858 0 l 744 0 l 628 315 m 594 413 l 438 849 l 282 413 l 594 413 m 348 1062 q 330 1079 348 1062 q 313 1149 313 1096 q 348 1235 313 1201 q 436 1269 383 1269 q 527 1236 492 1269 q 563 1150 563 1203 q 527 1063 563 1097 q 438 1028 492 1028 q 348 1062 383 1028 m 396 1191 q 388 1183 396 1191 q 381 1149 381 1175 q 396 1106 381 1122 q 438 1090 411 1090 q 479 1106 464 1090 q 494 1150 494 1122 q 479 1191 494 1175 q 436 1207 464 1207 q 396 1191 411 1207 z "},"Æ":{"ha":1126,"x_min":11,"x_max":1053,"o":"m 11 0 l 507 972 l 1039 972 l 1039 869 l 690 869 l 690 546 l 994 546 l 994 444 l 690 444 l 690 101 l 1053 101 l 1053 0 l 578 0 l 578 315 l 288 315 l 133 0 l 11 0 m 557 869 l 335 413 l 578 413 l 578 869 l 557 869 z "},"Ç":{"ha":911,"x_min":54,"x_max":861,"o":"m 826 192 l 861 93 q 800 49 836 71 q 693 4 764 26 q 547 -18 622 -18 l 525 -17 l 519 -65 q 601 -103 571 -71 q 631 -183 631 -135 q 586 -281 631 -249 q 474 -312 542 -312 q 415 -306 436 -312 l 428 -235 q 469 -239 450 -239 q 547 -182 547 -239 q 468 -125 547 -125 l 442 -128 l 457 -10 q 166 157 278 19 q 54 486 54 294 q 196 845 54 700 q 544 990 338 990 q 846 889 721 990 l 810 789 q 547 885 692 885 q 278 770 386 885 q 171 486 171 656 q 277 201 171 314 q 550 88 383 88 q 826 192 701 88 z "},"È":{"ha":658,"x_min":110,"x_max":586,"o":"m 110 0 l 110 972 l 571 972 l 571 869 l 222 869 l 222 546 l 526 546 l 526 444 l 222 444 l 222 101 l 586 101 l 586 0 l 110 0 m 321 1231 l 421 1033 l 324 1033 l 201 1231 l 321 1231 z "},"É":{"ha":658,"x_min":110,"x_max":586,"o":"m 110 0 l 110 972 l 571 972 l 571 869 l 222 869 l 222 546 l 526 546 l 526 444 l 222 444 l 222 101 l 586 101 l 586 0 l 110 0 m 283 1033 l 382 1231 l 503 1231 l 379 1033 l 283 1033 z "},"Ê":{"ha":658,"x_min":110,"x_max":586,"o":"m 110 0 l 110 972 l 571 972 l 571 869 l 222 869 l 222 546 l 526 546 l 526 444 l 222 444 l 222 101 l 586 101 l 586 0 l 110 0 m 435 1040 l 349 1154 l 264 1040 l 160 1040 l 290 1221 l 407 1221 l 538 1040 l 435 1040 z "},"Ë":{"ha":658,"x_min":110,"x_max":586,"o":"m 110 0 l 110 972 l 571 972 l 571 869 l 222 869 l 222 546 l 526 546 l 526 444 l 222 444 l 222 101 l 586 101 l 586 0 l 110 0 m 174 1128 q 194 1176 174 1156 q 243 1197 214 1197 q 292 1177 272 1197 q 313 1128 313 1157 q 293 1078 313 1099 q 243 1058 274 1058 q 194 1078 214 1058 q 174 1128 174 1099 m 421 1078 q 411 1089 421 1078 q 401 1128 401 1099 q 422 1177 401 1157 q 471 1197 442 1197 q 520 1176 500 1197 q 540 1128 540 1156 q 520 1078 540 1099 q 471 1058 500 1058 q 421 1078 440 1058 z "},"Ì":{"ha":332,"x_min":8,"x_max":228,"o":"m 110 0 l 110 972 l 222 972 l 222 0 l 110 0 m 128 1231 l 228 1033 l 131 1033 l 8 1231 l 128 1231 z "},"Í":{"ha":332,"x_min":106,"x_max":325,"o":"m 110 0 l 110 972 l 222 972 l 222 0 l 110 0 m 106 1033 l 204 1231 l 325 1231 l 201 1033 l 106 1033 z "},"Î":{"ha":332,"x_min":-18,"x_max":360,"o":"m 110 0 l 110 972 l 222 972 l 222 0 l 110 0 m 257 1040 l 171 1154 l 86 1040 l -18 1040 l 113 1221 l 229 1221 l 360 1040 l 257 1040 z "},"Ï":{"ha":332,"x_min":-11,"x_max":356,"o":"m 110 0 l 110 972 l 222 972 l 222 0 l 110 0 m -11 1128 q 9 1176 -11 1156 q 58 1197 29 1197 q 108 1177 88 1197 q 128 1128 128 1157 q 108 1078 128 1099 q 58 1058 89 1058 q 9 1078 29 1058 q -11 1128 -11 1099 m 236 1078 q 226 1089 236 1078 q 217 1128 217 1099 q 237 1177 217 1157 q 286 1197 257 1197 q 335 1176 315 1197 q 356 1128 356 1156 q 335 1078 356 1099 q 286 1058 315 1058 q 236 1078 256 1058 z "},"Ð":{"ha":889,"x_min":33,"x_max":836,"o":"m 33 442 l 33 542 l 114 542 l 114 972 l 315 972 q 699 844 563 972 q 836 486 836 715 q 699 124 836 249 q 315 0 563 0 l 114 0 l 114 442 l 33 442 m 226 100 l 338 100 q 617 199 515 100 q 719 486 719 299 q 617 769 719 667 q 338 871 514 871 l 226 871 l 226 542 l 428 542 l 428 442 l 226 442 l 226 100 z "},"Ñ":{"ha":978,"x_min":108,"x_max":868,"o":"m 108 0 l 108 972 l 221 972 l 757 199 l 757 972 l 868 972 l 868 0 l 757 0 l 221 771 l 221 0 l 108 0 m 582 1053 q 488 1084 543 1053 q 407 1115 432 1115 q 369 1099 383 1115 q 354 1054 356 1082 l 275 1054 q 311 1160 275 1121 q 406 1200 347 1200 q 500 1169 443 1200 q 579 1139 557 1139 q 617 1156 603 1139 q 632 1200 631 1172 l 710 1200 q 674 1093 710 1133 q 582 1053 639 1053 z "},"Ò":{"ha":1099,"x_min":53,"x_max":1044,"o":"m 53 486 q 195 846 53 701 q 549 990 338 990 q 902 845 760 990 q 1044 486 1044 700 q 902 126 1044 271 q 547 -18 760 -18 q 194 126 336 -18 q 53 486 53 269 m 169 486 q 278 201 169 314 q 549 88 386 88 q 819 201 711 88 q 928 486 928 314 q 819 771 928 657 q 549 885 710 885 q 278 771 388 885 q 169 486 169 657 m 506 1231 l 606 1033 l 508 1033 l 386 1231 l 506 1231 z "},"Ó":{"ha":1099,"x_min":53,"x_max":1044,"o":"m 53 486 q 195 846 53 701 q 549 990 338 990 q 902 845 760 990 q 1044 486 1044 700 q 902 126 1044 271 q 547 -18 760 -18 q 194 126 336 -18 q 53 486 53 269 m 169 486 q 278 201 169 314 q 549 88 386 88 q 819 201 711 88 q 928 486 928 314 q 819 771 928 657 q 549 885 710 885 q 278 771 388 885 q 169 486 169 657 m 479 1033 l 578 1231 l 699 1231 l 575 1033 l 479 1033 z "},"Ô":{"ha":1099,"x_min":53,"x_max":1044,"o":"m 53 486 q 195 846 53 701 q 549 990 338 990 q 902 845 760 990 q 1044 486 1044 700 q 902 126 1044 271 q 547 -18 760 -18 q 194 126 336 -18 q 53 486 53 269 m 169 486 q 278 201 169 314 q 549 88 386 88 q 819 201 711 88 q 928 486 928 314 q 819 771 928 657 q 549 885 710 885 q 278 771 388 885 q 169 486 169 657 m 633 1040 l 547 1154 l 463 1040 l 358 1040 l 489 1221 l 606 1221 l 736 1040 l 633 1040 z "},"Õ":{"ha":1099,"x_min":53,"x_max":1044,"o":"m 53 486 q 195 846 53 701 q 549 990 338 990 q 902 845 760 990 q 1044 486 1044 700 q 902 126 1044 271 q 547 -18 760 -18 q 194 126 336 -18 q 53 486 53 269 m 169 486 q 278 201 169 314 q 549 88 386 88 q 819 201 711 88 q 928 486 928 314 q 819 771 928 657 q 549 885 710 885 q 278 771 388 885 q 169 486 169 657 m 642 1053 q 547 1084 603 1053 q 467 1115 492 1115 q 429 1099 443 1115 q 414 1054 415 1082 l 335 1054 q 371 1160 335 1121 q 465 1200 407 1200 q 560 1169 503 1200 q 639 1139 617 1139 q 676 1156 663 1139 q 692 1200 690 1172 l 769 1200 q 734 1093 769 1133 q 642 1053 699 1053 z "},"Ö":{"ha":1099,"x_min":53,"x_max":1044,"o":"m 53 486 q 195 846 53 701 q 549 990 338 990 q 902 845 760 990 q 1044 486 1044 700 q 902 126 1044 271 q 547 -18 760 -18 q 194 126 336 -18 q 53 486 53 269 m 169 486 q 278 201 169 314 q 549 88 386 88 q 819 201 711 88 q 928 486 928 314 q 819 771 928 657 q 549 885 710 885 q 278 771 388 885 q 169 486 169 657 m 368 1128 q 388 1176 368 1156 q 438 1197 408 1197 q 487 1177 467 1197 q 507 1128 507 1157 q 488 1078 507 1099 q 438 1058 468 1058 q 388 1078 408 1058 q 368 1128 368 1099 m 615 1078 q 606 1089 615 1078 q 596 1128 596 1099 q 616 1177 596 1157 q 665 1197 636 1197 q 715 1176 694 1197 q 735 1128 735 1156 q 715 1078 735 1099 q 665 1058 694 1058 q 615 1078 635 1058 z "},"×":{"ha":738,"x_min":65,"x_max":671,"o":"m 65 172 l 303 428 l 65 685 l 131 751 l 368 496 l 606 751 l 669 686 l 431 429 l 671 171 l 606 106 l 367 363 l 131 107 l 65 172 z "},"Ø":{"ha":1099,"x_min":54,"x_max":1046,"o":"m 54 486 q 197 846 54 701 q 550 990 339 990 q 824 908 701 990 l 896 999 l 965 943 l 894 853 q 1046 486 1046 708 q 903 126 1046 271 q 549 -18 761 -18 q 272 63 394 -18 l 201 -28 l 132 28 l 203 118 q 54 486 54 263 m 171 486 q 275 208 171 319 l 756 822 q 550 885 664 885 q 279 771 388 885 q 171 486 171 657 m 929 486 q 824 764 929 650 l 340 149 q 550 88 431 88 q 820 201 711 88 q 929 486 929 314 z "},"Ù":{"ha":933,"x_min":104,"x_max":829,"o":"m 467 -18 q 199 81 294 -18 q 104 349 104 181 l 104 972 l 217 972 l 217 350 q 281 156 217 226 q 467 86 346 86 q 653 157 588 86 q 718 351 718 228 l 718 972 l 829 972 l 829 350 q 733 83 829 183 q 467 -18 638 -18 m 438 1231 l 538 1033 l 440 1033 l 318 1231 l 438 1231 z "},"Ú":{"ha":933,"x_min":104,"x_max":829,"o":"m 467 -18 q 199 81 294 -18 q 104 349 104 181 l 104 972 l 217 972 l 217 350 q 281 156 217 226 q 467 86 346 86 q 653 157 588 86 q 718 351 718 228 l 718 972 l 829 972 l 829 350 q 733 83 829 183 q 467 -18 638 -18 m 401 1033 l 500 1231 l 621 1231 l 497 1033 l 401 1033 z "},"Û":{"ha":933,"x_min":104,"x_max":829,"o":"m 467 -18 q 199 81 294 -18 q 104 349 104 181 l 104 972 l 217 972 l 217 350 q 281 156 217 226 q 467 86 346 86 q 653 157 588 86 q 718 351 718 228 l 718 972 l 829 972 l 829 350 q 733 83 829 183 q 467 -18 638 -18 m 553 1040 l 467 1154 l 382 1040 l 278 1040 l 408 1221 l 525 1221 l 656 1040 l 553 1040 z "},"Ü":{"ha":933,"x_min":104,"x_max":829,"o":"m 467 -18 q 199 81 294 -18 q 104 349 104 181 l 104 972 l 217 972 l 217 350 q 281 156 217 226 q 467 86 346 86 q 653 157 588 86 q 718 351 718 228 l 718 972 l 829 972 l 829 350 q 733 83 829 183 q 467 -18 638 -18 m 286 1128 q 306 1176 286 1156 q 356 1197 326 1197 q 405 1177 385 1197 q 425 1128 425 1157 q 406 1078 425 1099 q 356 1058 386 1058 q 306 1078 326 1058 q 286 1128 286 1099 m 533 1078 q 524 1089 533 1078 q 514 1128 514 1099 q 534 1177 514 1157 q 583 1197 554 1197 q 633 1176 613 1197 q 653 1128 653 1156 q 633 1078 653 1099 q 583 1058 613 1058 q 533 1078 553 1058 z "},"Ý":{"ha":739,"x_min":13,"x_max":726,"o":"m 314 0 l 314 456 l 13 972 l 142 972 l 369 563 l 601 972 l 726 972 l 425 456 l 425 0 l 314 0 m 311 1033 l 410 1231 l 531 1231 l 407 1033 l 311 1033 z "},"Þ":{"ha":713,"x_min":110,"x_max":672,"o":"m 110 0 l 110 972 l 222 972 l 222 782 l 382 782 q 594 708 515 782 q 672 503 672 633 q 592 295 672 372 q 382 218 511 218 l 222 218 l 222 0 l 110 0 m 222 317 l 372 317 q 508 367 458 317 q 557 501 557 417 q 508 634 557 586 q 372 682 460 682 l 222 682 l 222 317 z "},"ß":{"ha":747,"x_min":92,"x_max":706,"o":"m 350 901 q 203 740 203 901 l 203 0 l 92 0 l 92 760 q 161 941 92 882 q 350 1000 231 1000 q 531 940 463 1000 q 599 796 599 881 q 489 615 599 665 q 644 513 583 588 q 706 331 706 438 q 601 83 706 167 q 329 0 497 0 l 329 97 q 513 153 433 97 q 593 329 593 210 q 515 497 593 438 q 329 557 436 557 l 329 653 q 440 685 392 653 q 488 781 488 718 q 450 869 488 836 q 350 901 413 901 z "},"à":{"ha":708,"x_min":47,"x_max":625,"o":"m 47 222 q 125 392 47 325 q 325 460 203 460 q 440 440 389 460 q 515 394 490 421 l 515 483 q 468 601 515 558 q 340 643 421 643 q 128 581 233 643 l 83 661 q 350 740 210 740 q 558 669 492 740 q 625 476 625 599 l 625 0 l 531 0 l 518 61 q 322 -18 449 -18 q 125 49 203 -18 q 47 222 47 117 m 208 330 q 183 309 208 330 q 158 224 158 288 q 208 117 158 160 q 340 74 258 74 q 469 116 419 74 q 519 224 519 158 q 470 332 519 292 q 339 372 421 372 q 208 330 258 372 m 322 1007 l 422 810 l 325 810 l 203 1007 l 322 1007 z "},"á":{"ha":708,"x_min":47,"x_max":625,"o":"m 47 222 q 125 392 47 325 q 325 460 203 460 q 440 440 389 460 q 515 394 490 421 l 515 483 q 468 601 515 558 q 340 643 421 643 q 128 581 233 643 l 83 661 q 350 740 210 740 q 558 669 492 740 q 625 476 625 599 l 625 0 l 531 0 l 518 61 q 322 -18 449 -18 q 125 49 203 -18 q 47 222 47 117 m 208 330 q 183 309 208 330 q 158 224 158 288 q 208 117 158 160 q 340 74 258 74 q 469 116 419 74 q 519 224 519 158 q 470 332 519 292 q 339 372 421 372 q 208 330 258 372 m 288 810 l 386 1007 l 507 1007 l 383 810 l 288 810 z "},"â":{"ha":708,"x_min":47,"x_max":625,"o":"m 47 222 q 125 392 47 325 q 325 460 203 460 q 440 440 389 460 q 515 394 490 421 l 515 483 q 468 601 515 558 q 340 643 421 643 q 128 581 233 643 l 83 661 q 350 740 210 740 q 558 669 492 740 q 625 476 625 599 l 625 0 l 531 0 l 518 61 q 322 -18 449 -18 q 125 49 203 -18 q 47 222 47 117 m 208 330 q 183 309 208 330 q 158 224 158 288 q 208 117 158 160 q 340 74 258 74 q 469 116 419 74 q 519 224 519 158 q 470 332 519 292 q 339 372 421 372 q 208 330 258 372 m 439 825 l 353 939 l 268 825 l 164 825 l 294 1006 l 411 1006 l 542 825 l 439 825 z "},"ã":{"ha":708,"x_min":47,"x_max":625,"o":"m 47 222 q 125 392 47 325 q 325 460 203 460 q 440 440 389 460 q 515 394 490 421 l 515 483 q 468 601 515 558 q 340 643 421 643 q 128 581 233 643 l 83 661 q 350 740 210 740 q 558 669 492 740 q 625 476 625 599 l 625 0 l 531 0 l 518 61 q 322 -18 449 -18 q 125 49 203 -18 q 47 222 47 117 m 208 330 q 183 309 208 330 q 158 224 158 288 q 208 117 158 160 q 340 74 258 74 q 469 116 419 74 q 519 224 519 158 q 470 332 519 292 q 339 372 421 372 q 208 330 258 372 m 440 835 q 346 866 401 835 q 265 897 290 897 q 228 881 242 897 q 213 836 214 864 l 133 836 q 169 942 133 903 q 264 982 206 982 q 358 951 301 982 q 438 921 415 921 q 475 938 461 921 q 490 982 489 954 l 568 982 q 533 875 568 915 q 440 835 497 835 z "},"ä":{"ha":708,"x_min":47,"x_max":625,"o":"m 47 222 q 125 392 47 325 q 325 460 203 460 q 440 440 389 460 q 515 394 490 421 l 515 483 q 468 601 515 558 q 340 643 421 643 q 128 581 233 643 l 83 661 q 350 740 210 740 q 558 669 492 740 q 625 476 625 599 l 625 0 l 531 0 l 518 61 q 322 -18 449 -18 q 125 49 203 -18 q 47 222 47 117 m 208 330 q 183 309 208 330 q 158 224 158 288 q 208 117 158 160 q 340 74 258 74 q 469 116 419 74 q 519 224 519 158 q 470 332 519 292 q 339 372 421 372 q 208 330 258 372 m 178 907 q 198 956 178 935 q 247 976 218 976 q 297 956 276 976 q 317 907 317 936 q 297 858 317 878 q 247 838 278 838 q 198 858 218 838 q 178 907 178 878 m 425 858 q 415 868 425 858 q 406 907 406 878 q 426 956 406 936 q 475 976 446 976 q 524 956 504 976 q 544 907 544 935 q 524 858 544 878 q 475 838 504 838 q 425 858 444 838 z "},"å":{"ha":708,"x_min":47,"x_max":625,"o":"m 47 222 q 125 392 47 325 q 325 460 203 460 q 440 440 389 460 q 515 394 490 421 l 515 483 q 468 601 515 558 q 340 643 421 643 q 128 581 233 643 l 83 661 q 350 740 210 740 q 558 669 492 740 q 625 476 625 599 l 625 0 l 531 0 l 518 61 q 322 -18 449 -18 q 125 49 203 -18 q 47 222 47 117 m 208 330 q 183 309 208 330 q 158 224 158 288 q 208 117 158 160 q 340 74 258 74 q 469 116 419 74 q 519 224 519 158 q 470 332 519 292 q 339 372 421 372 q 208 330 258 372 m 266 835 q 248 852 266 835 q 231 922 231 869 q 266 1009 231 975 q 354 1043 301 1043 q 445 1010 410 1043 q 481 924 481 976 q 445 836 481 871 q 356 801 410 801 q 266 835 301 801 m 314 965 q 306 957 314 965 q 299 922 299 949 q 314 880 299 896 q 356 864 329 864 q 397 880 382 864 q 413 924 413 896 q 397 965 413 949 q 354 981 382 981 q 314 965 329 981 z "},"æ":{"ha":1249,"x_min":47,"x_max":1204,"o":"m 47 222 q 125 392 47 325 q 325 460 203 460 q 440 440 389 460 q 515 394 490 421 l 515 483 q 468 601 515 558 q 340 643 421 643 q 128 581 233 643 l 83 661 q 350 740 210 740 q 593 600 540 740 q 709 703 639 667 q 861 740 779 740 q 1111 638 1018 740 q 1204 371 1204 536 l 1204 338 l 625 338 q 698 149 626 218 q 883 79 769 79 q 1108 192 1028 79 l 1181 139 q 1069 29 1143 76 q 883 -18 994 -18 q 702 22 782 -18 q 579 136 622 61 q 488 27 553 72 q 322 -18 422 -18 q 125 49 203 -18 q 47 222 47 117 m 208 330 q 183 309 208 330 q 158 224 158 288 q 208 117 158 160 q 340 74 258 74 q 468 115 419 74 q 517 224 517 157 q 468 332 517 292 q 339 372 419 372 q 208 330 258 372 m 629 419 l 1092 419 q 1021 587 1086 528 q 861 646 956 646 q 704 585 769 646 q 629 419 639 525 z "},"ç":{"ha":711,"x_min":46,"x_max":669,"o":"m 669 642 l 632 547 q 418 639 544 639 q 233 559 306 639 q 160 361 160 479 q 235 163 160 244 q 421 82 310 82 q 636 178 540 82 l 669 85 q 622 44 650 64 q 535 3 593 24 q 415 -18 478 -18 l 408 -65 q 490 -103 460 -71 q 519 -183 519 -135 q 475 -281 519 -249 q 363 -312 431 -312 q 304 -306 325 -312 l 317 -235 q 358 -239 339 -239 q 436 -182 436 -239 q 357 -125 436 -125 l 331 -128 l 346 -11 q 129 115 213 13 q 46 361 46 218 q 152 631 46 522 q 415 740 258 740 q 669 642 567 740 z "},"è":{"ha":785,"x_min":47,"x_max":740,"o":"m 47 358 q 149 634 47 528 q 397 740 250 740 q 647 638 554 740 q 740 371 740 536 q 739 338 740 351 l 160 338 q 233 149 161 218 q 419 79 306 79 q 644 192 564 79 l 717 139 q 604 29 679 76 q 418 -18 529 -18 q 151 87 254 -18 q 47 358 47 192 m 165 419 l 628 419 q 557 587 622 528 q 397 646 492 646 q 239 583 307 646 q 165 419 171 519 m 367 1007 l 467 810 l 369 810 l 247 1007 l 367 1007 z "},"é":{"ha":785,"x_min":47,"x_max":740,"o":"m 47 358 q 149 634 47 528 q 397 740 250 740 q 647 638 554 740 q 740 371 740 536 q 739 338 740 351 l 160 338 q 233 149 161 218 q 419 79 306 79 q 644 192 564 79 l 717 139 q 604 29 679 76 q 418 -18 529 -18 q 151 87 254 -18 q 47 358 47 192 m 165 419 l 628 419 q 557 587 622 528 q 397 646 492 646 q 239 583 307 646 q 165 419 171 519 m 328 810 l 426 1007 l 547 1007 l 424 810 l 328 810 z "},"ê":{"ha":785,"x_min":47,"x_max":740,"o":"m 47 358 q 149 634 47 528 q 397 740 250 740 q 647 638 554 740 q 740 371 740 536 q 739 338 740 351 l 160 338 q 233 149 161 218 q 419 79 306 79 q 644 192 564 79 l 717 139 q 604 29 679 76 q 418 -18 529 -18 q 151 87 254 -18 q 47 358 47 192 m 165 419 l 628 419 q 557 587 622 528 q 397 646 492 646 q 239 583 307 646 q 165 419 171 519 m 485 825 l 399 939 l 314 825 l 210 825 l 340 1006 l 457 1006 l 588 825 l 485 825 z "},"ë":{"ha":785,"x_min":47,"x_max":740,"o":"m 47 358 q 149 634 47 528 q 397 740 250 740 q 647 638 554 740 q 740 371 740 536 q 739 338 740 351 l 160 338 q 233 149 161 218 q 419 79 306 79 q 644 192 564 79 l 717 139 q 604 29 679 76 q 418 -18 529 -18 q 151 87 254 -18 q 47 358 47 192 m 165 419 l 628 419 q 557 587 622 528 q 397 646 492 646 q 239 583 307 646 q 165 419 171 519 m 218 907 q 238 956 218 935 q 288 976 258 976 q 337 956 317 976 q 357 907 357 936 q 338 858 357 878 q 288 838 318 838 q 238 858 258 838 q 218 907 218 878 m 465 858 q 456 868 465 858 q 446 907 446 878 q 466 956 446 936 q 515 976 486 976 q 565 956 544 976 q 585 907 585 935 q 565 858 585 878 q 515 838 544 838 q 465 858 485 838 z "},"ì":{"ha":299,"x_min":-8,"x_max":211,"o":"m 111 1007 l 211 810 l 114 810 l -8 1007 l 111 1007 m 94 0 l 94 722 l 204 722 l 204 0 l 94 0 z "},"í":{"ha":299,"x_min":86,"x_max":306,"o":"m 86 810 l 185 1007 l 306 1007 l 182 810 l 86 810 m 94 0 l 94 722 l 204 722 l 204 0 l 94 0 z "},"î":{"ha":299,"x_min":-36,"x_max":342,"o":"m 94 0 l 94 722 l 204 722 l 204 0 l 94 0 m 239 825 l 153 939 l 68 825 l -36 825 l 94 1006 l 211 1006 l 342 825 l 239 825 z "},"ï":{"ha":299,"x_min":-32,"x_max":335,"o":"m -32 907 q -12 956 -32 935 q 38 976 8 976 q 87 956 67 976 q 107 907 107 936 q 88 858 107 878 q 38 838 68 838 q -12 858 8 838 q -32 907 -32 878 m 215 858 q 206 868 215 858 q 196 907 196 878 q 216 956 196 936 q 265 976 236 976 q 315 956 294 976 q 335 907 335 935 q 315 858 335 878 q 265 838 294 838 q 215 858 235 838 m 94 0 l 94 722 l 204 722 l 204 0 l 94 0 z "},"ð":{"ha":821,"x_min":49,"x_max":767,"o":"m 49 344 q 149 597 49 497 q 407 697 249 697 q 557 654 494 697 q 483 743 528 699 q 403 810 438 788 l 179 722 l 167 803 l 329 868 q 178 960 263 915 l 249 1014 q 438 907 343 972 l 608 974 l 622 893 l 508 847 q 767 372 767 640 q 672 92 767 203 q 403 -18 576 -18 q 147 86 246 -18 q 49 344 49 190 m 229 530 q 195 493 229 530 q 161 344 161 456 q 228 157 161 233 q 404 81 296 81 q 590 160 525 81 q 654 361 654 240 q 586 533 654 463 q 413 604 518 604 q 229 530 297 604 z "},"ñ":{"ha":761,"x_min":94,"x_max":672,"o":"m 418 740 q 606 660 540 740 q 672 451 672 579 l 672 0 l 563 0 l 563 456 q 515 590 563 540 q 392 640 467 640 q 256 584 308 640 q 204 439 204 528 l 204 0 l 94 0 l 94 722 l 203 722 l 203 618 q 288 705 231 669 q 418 740 346 740 m 472 835 q 378 866 433 835 q 297 897 322 897 q 260 881 274 897 q 244 836 246 864 l 165 836 q 201 942 165 903 q 296 982 238 982 q 390 951 333 982 q 469 921 447 921 q 507 938 493 921 q 522 982 521 954 l 600 982 q 565 875 600 915 q 472 835 529 835 z "},"ò":{"ha":846,"x_min":46,"x_max":800,"o":"m 158 361 q 233 160 158 239 q 422 82 307 82 q 614 161 539 82 q 689 361 689 240 q 614 561 689 482 q 422 640 539 640 q 233 560 307 640 q 158 361 158 481 m 153 90 q 99 143 153 90 q 46 361 46 197 q 153 633 46 525 q 424 740 261 740 q 693 632 586 740 q 800 361 800 524 q 692 90 800 199 q 422 -18 585 -18 q 153 90 260 -18 m 375 1007 l 475 810 l 378 810 l 256 1007 l 375 1007 z "},"ó":{"ha":846,"x_min":46,"x_max":800,"o":"m 158 361 q 233 160 158 239 q 422 82 307 82 q 614 161 539 82 q 689 361 689 240 q 614 561 689 482 q 422 640 539 640 q 233 560 307 640 q 158 361 158 481 m 153 90 q 99 143 153 90 q 46 361 46 197 q 153 633 46 525 q 424 740 261 740 q 693 632 586 740 q 800 361 800 524 q 692 90 800 199 q 422 -18 585 -18 q 153 90 260 -18 m 354 810 l 453 1007 l 574 1007 l 450 810 l 354 810 z "},"ô":{"ha":846,"x_min":46,"x_max":800,"o":"m 158 361 q 233 160 158 239 q 422 82 307 82 q 614 161 539 82 q 689 361 689 240 q 614 561 689 482 q 422 640 539 640 q 233 560 307 640 q 158 361 158 481 m 153 90 q 99 143 153 90 q 46 361 46 197 q 153 633 46 525 q 424 740 261 740 q 693 632 586 740 q 800 361 800 524 q 692 90 800 199 q 422 -18 585 -18 q 153 90 260 -18 m 513 825 l 426 939 l 342 825 l 238 825 l 368 1006 l 485 1006 l 615 825 l 513 825 z "},"õ":{"ha":846,"x_min":46,"x_max":800,"o":"m 158 361 q 233 160 158 239 q 422 82 307 82 q 614 161 539 82 q 689 361 689 240 q 614 561 689 482 q 422 640 539 640 q 233 560 307 640 q 158 361 158 481 m 153 90 q 99 143 153 90 q 46 361 46 197 q 153 633 46 525 q 424 740 261 740 q 693 632 586 740 q 800 361 800 524 q 692 90 800 199 q 422 -18 585 -18 q 153 90 260 -18 m 517 835 q 422 866 478 835 q 342 897 367 897 q 304 881 318 897 q 289 836 290 864 l 210 836 q 246 942 210 903 q 340 982 282 982 q 435 951 378 982 q 514 921 492 921 q 551 938 538 921 q 567 982 565 954 l 644 982 q 609 875 644 915 q 517 835 574 835 z "},"ö":{"ha":846,"x_min":46,"x_max":800,"o":"m 158 361 q 233 160 158 239 q 422 82 307 82 q 614 161 539 82 q 689 361 689 240 q 614 561 689 482 q 422 640 539 640 q 233 560 307 640 q 158 361 158 481 m 153 90 q 99 143 153 90 q 46 361 46 197 q 153 633 46 525 q 424 740 261 740 q 693 632 586 740 q 800 361 800 524 q 692 90 800 199 q 422 -18 585 -18 q 153 90 260 -18 m 244 907 q 265 956 244 935 q 314 976 285 976 q 363 956 343 976 q 383 907 383 936 q 364 858 383 878 q 314 838 344 838 q 265 858 285 838 q 244 907 244 878 m 492 858 q 482 868 492 858 q 472 907 472 878 q 492 956 472 936 q 542 976 513 976 q 591 956 571 976 q 611 907 611 935 q 591 858 611 878 q 542 838 571 838 q 492 858 511 838 z "},"÷":{"ha":764,"x_min":56,"x_max":708,"o":"m 332 624 q 322 634 332 624 q 311 674 311 644 q 332 724 311 703 q 382 744 353 744 q 431 724 411 744 q 451 674 451 703 q 431 624 451 644 q 382 604 411 604 q 332 624 353 604 m 311 190 q 332 240 311 219 q 382 261 353 261 q 431 240 411 261 q 451 190 451 219 q 431 142 451 163 q 382 121 411 121 q 332 142 353 121 q 311 190 311 163 m 56 386 l 56 479 l 708 479 l 708 386 l 56 386 z "},"ø":{"ha":847,"x_min":46,"x_max":800,"o":"m 46 361 q 153 633 46 525 q 424 740 261 740 q 629 682 539 740 l 682 750 l 746 699 l 693 632 q 800 361 800 525 q 692 90 800 199 q 422 -18 585 -18 q 225 33 311 -18 l 172 -33 l 108 17 l 160 82 q 46 361 46 192 m 158 361 q 228 168 158 244 l 564 600 q 422 640 499 640 q 233 560 307 640 q 158 361 158 481 m 689 361 q 625 544 689 467 l 290 117 q 422 82 346 82 q 614 161 539 82 q 689 361 689 240 z "},"ù":{"ha":754,"x_min":88,"x_max":667,"o":"m 343 -18 q 154 63 221 -18 q 88 271 88 143 l 88 722 l 197 722 l 197 267 q 245 132 197 182 q 368 82 293 82 q 503 138 451 82 q 556 283 556 194 l 556 722 l 667 722 l 667 0 l 557 0 l 557 104 q 472 17 531 53 q 343 -18 414 -18 m 356 1007 l 456 810 l 358 810 l 236 1007 l 356 1007 z "},"ú":{"ha":754,"x_min":88,"x_max":667,"o":"m 343 -18 q 154 63 221 -18 q 88 271 88 143 l 88 722 l 197 722 l 197 267 q 245 132 197 182 q 368 82 293 82 q 503 138 451 82 q 556 283 556 194 l 556 722 l 667 722 l 667 0 l 557 0 l 557 104 q 472 17 531 53 q 343 -18 414 -18 m 313 810 l 411 1007 l 532 1007 l 408 810 l 313 810 z "},"û":{"ha":754,"x_min":88,"x_max":667,"o":"m 343 -18 q 154 63 221 -18 q 88 271 88 143 l 88 722 l 197 722 l 197 267 q 245 132 197 182 q 368 82 293 82 q 503 138 451 82 q 556 283 556 194 l 556 722 l 667 722 l 667 0 l 557 0 l 557 104 q 472 17 531 53 q 343 -18 414 -18 m 465 825 l 379 939 l 294 825 l 190 825 l 321 1006 l 438 1006 l 568 825 l 465 825 z "},"ü":{"ha":754,"x_min":88,"x_max":667,"o":"m 343 -18 q 154 63 221 -18 q 88 271 88 143 l 88 722 l 197 722 l 197 267 q 245 132 197 182 q 368 82 293 82 q 503 138 451 82 q 556 283 556 194 l 556 722 l 667 722 l 667 0 l 557 0 l 557 104 q 472 17 531 53 q 343 -18 414 -18 m 201 907 q 222 956 201 935 q 271 976 242 976 q 320 956 300 976 q 340 907 340 936 q 321 858 340 878 q 271 838 301 838 q 222 858 242 838 q 201 907 201 878 m 449 858 q 439 868 449 858 q 429 907 429 878 q 449 956 429 936 q 499 976 469 976 q 548 956 528 976 q 568 907 568 935 q 548 858 568 878 q 499 838 528 838 q 449 858 468 838 z "},"ý":{"ha":706,"x_min":8,"x_max":696,"o":"m 308 -249 l 199 -249 l 303 7 l 8 722 l 128 722 l 357 142 l 579 722 l 696 722 l 308 -249 m 292 810 l 390 1007 l 511 1007 l 388 810 l 292 810 z "},"þ":{"ha":851,"x_min":94,"x_max":804,"o":"m 94 -260 l 94 1004 l 204 1004 l 204 611 q 451 740 301 740 q 705 634 606 740 q 804 363 804 528 q 708 88 804 194 q 460 -18 613 -18 q 296 26 361 -18 q 204 117 231 71 l 204 -260 l 94 -260 m 200 363 q 271 158 200 233 q 447 82 342 82 q 623 160 554 82 q 692 363 692 239 q 622 564 692 488 q 444 640 551 640 q 267 560 335 640 q 200 363 200 479 z "},"ÿ":{"ha":706,"x_min":8,"x_max":696,"o":"m 308 -249 l 199 -249 l 303 7 l 8 722 l 128 722 l 357 142 l 579 722 l 696 722 l 308 -249 m 176 907 q 197 956 176 935 q 246 976 217 976 q 295 956 275 976 q 315 907 315 936 q 296 858 315 878 q 246 838 276 838 q 197 858 217 838 q 176 907 176 878 m 424 858 q 414 868 424 858 q 404 907 404 878 q 424 956 404 936 q 474 976 444 976 q 523 956 503 976 q 543 907 543 935 q 523 858 543 878 q 474 838 503 838 q 424 858 443 838 z "},"Ā":{"ha":876,"x_min":17,"x_max":858,"o":"m 628 315 l 247 315 l 131 0 l 17 0 l 381 972 l 494 972 l 858 0 l 744 0 l 628 315 m 594 413 l 438 849 l 282 413 l 594 413 m 269 1063 l 269 1150 l 606 1150 l 606 1063 l 269 1063 z "},"ā":{"ha":708,"x_min":47,"x_max":625,"o":"m 47 222 q 125 392 47 325 q 325 460 203 460 q 440 440 389 460 q 515 394 490 421 l 515 483 q 468 601 515 558 q 340 643 421 643 q 128 581 233 643 l 83 661 q 350 740 210 740 q 558 669 492 740 q 625 476 625 599 l 625 0 l 531 0 l 518 61 q 322 -18 449 -18 q 125 49 203 -18 q 47 222 47 117 m 208 330 q 183 309 208 330 q 158 224 158 288 q 208 117 158 160 q 340 74 258 74 q 469 116 419 74 q 519 224 519 158 q 470 332 519 292 q 339 372 421 372 q 208 330 258 372 m 190 874 l 190 961 l 526 961 l 526 874 l 190 874 z "},"Ă":{"ha":876,"x_min":17,"x_max":858,"o":"m 628 315 l 247 315 l 131 0 l 17 0 l 381 972 l 494 972 l 858 0 l 744 0 l 628 315 m 594 413 l 438 849 l 282 413 l 594 413 m 568 1087 q 545 1062 568 1087 q 438 1038 522 1038 q 307 1087 353 1038 q 261 1213 261 1136 l 349 1213 q 438 1114 349 1114 q 505 1141 483 1114 q 526 1213 526 1168 l 614 1213 q 568 1087 614 1136 z "},"ă":{"ha":708,"x_min":47,"x_max":625,"o":"m 47 222 q 125 392 47 325 q 325 460 203 460 q 440 440 389 460 q 515 394 490 421 l 515 483 q 468 601 515 558 q 340 643 421 643 q 128 581 233 643 l 83 661 q 350 740 210 740 q 558 669 492 740 q 625 476 625 599 l 625 0 l 531 0 l 518 61 q 322 -18 449 -18 q 125 49 203 -18 q 47 222 47 117 m 208 330 q 183 309 208 330 q 158 224 158 288 q 208 117 158 160 q 340 74 258 74 q 469 116 419 74 q 519 224 519 158 q 470 332 519 292 q 339 372 421 372 q 208 330 258 372 m 483 865 q 460 840 483 865 q 353 815 438 815 q 222 865 268 815 q 176 990 176 914 l 264 990 q 353 892 264 892 q 420 919 399 892 q 442 990 442 946 l 529 990 q 483 865 529 914 z "},"Ą":{"ha":876,"x_min":17,"x_max":858,"o":"m 661 -140 q 694 -54 661 -93 q 768 0 728 -15 l 744 0 l 628 315 l 247 315 l 131 0 l 17 0 l 381 972 l 494 972 l 858 0 q 794 -43 828 -11 q 761 -115 761 -75 q 785 -165 761 -149 q 846 -182 810 -182 l 846 -268 q 813 -271 835 -271 q 706 -237 751 -271 q 661 -140 661 -203 m 594 413 l 438 849 l 282 413 l 594 413 z "},"ą":{"ha":708,"x_min":47,"x_max":625,"o":"m 428 -140 q 460 -54 428 -93 q 532 0 493 -15 l 518 61 q 322 -18 449 -18 q 125 49 203 -18 q 47 222 47 117 q 125 392 47 325 q 325 460 203 460 q 440 440 389 460 q 515 394 490 421 l 515 483 q 468 601 515 558 q 340 643 421 643 q 128 581 233 643 l 83 661 q 350 740 210 740 q 558 669 492 740 q 625 476 625 599 l 625 0 q 561 -43 594 -11 q 528 -115 528 -75 q 552 -165 528 -149 q 613 -182 576 -182 l 613 -268 q 579 -271 601 -271 q 473 -237 518 -271 q 428 -140 428 -203 m 208 330 q 183 309 208 330 q 158 224 158 288 q 208 117 158 160 q 340 74 258 74 q 469 116 419 74 q 519 224 519 158 q 470 332 519 292 q 339 372 421 372 q 208 330 258 372 z "},"Ć":{"ha":911,"x_min":54,"x_max":861,"o":"m 826 192 l 861 93 q 800 49 836 71 q 693 4 764 26 q 547 -18 622 -18 q 194 126 335 -18 q 54 486 54 269 q 196 845 54 700 q 544 990 338 990 q 846 889 721 990 l 810 789 q 547 885 692 885 q 278 770 386 885 q 171 486 171 656 q 277 201 171 314 q 550 88 383 88 q 826 192 701 88 m 451 1033 l 550 1231 l 671 1231 l 547 1033 l 451 1033 z "},"ć":{"ha":711,"x_min":46,"x_max":669,"o":"m 669 642 l 632 547 q 418 639 544 639 q 233 559 306 639 q 160 361 160 479 q 235 163 160 244 q 421 82 310 82 q 636 178 540 82 l 669 85 q 622 44 650 64 q 535 3 593 24 q 417 -18 478 -18 q 151 91 257 -18 q 46 361 46 200 q 152 631 46 522 q 415 740 258 740 q 669 642 567 740 m 342 810 l 440 1007 l 561 1007 l 438 810 l 342 810 z "},"Ĉ":{"ha":911,"x_min":54,"x_max":861,"o":"m 826 192 l 861 93 q 800 49 836 71 q 693 4 764 26 q 547 -18 622 -18 q 194 126 335 -18 q 54 486 54 269 q 196 845 54 700 q 544 990 338 990 q 846 889 721 990 l 810 789 q 547 885 692 885 q 278 770 386 885 q 171 486 171 656 q 277 201 171 314 q 550 88 383 88 q 826 192 701 88 m 633 1040 l 547 1154 l 463 1040 l 358 1040 l 489 1221 l 606 1221 l 736 1040 l 633 1040 z "},"ĉ":{"ha":711,"x_min":46,"x_max":669,"o":"m 669 642 l 632 547 q 418 639 544 639 q 233 559 306 639 q 160 361 160 479 q 235 163 160 244 q 421 82 310 82 q 636 178 540 82 l 669 85 q 622 44 650 64 q 535 3 593 24 q 417 -18 478 -18 q 151 91 257 -18 q 46 361 46 200 q 152 631 46 522 q 415 740 258 740 q 669 642 567 740 m 503 825 l 417 939 l 332 825 l 228 825 l 358 1006 l 475 1006 l 606 825 l 503 825 z "},"Ċ":{"ha":911,"x_min":54,"x_max":861,"o":"m 826 192 l 861 93 q 800 49 836 71 q 693 4 764 26 q 547 -18 622 -18 q 194 126 335 -18 q 54 486 54 269 q 196 845 54 700 q 544 990 338 990 q 846 889 721 990 l 810 789 q 547 885 692 885 q 278 770 386 885 q 171 486 171 656 q 277 201 171 314 q 550 88 383 88 q 826 192 701 88 m 472 1125 q 494 1178 472 1156 q 547 1200 517 1200 q 601 1178 579 1200 q 624 1125 624 1157 q 601 1071 624 1093 q 547 1049 579 1049 q 494 1071 515 1049 q 472 1125 472 1093 z "},"ċ":{"ha":711,"x_min":46,"x_max":669,"o":"m 669 642 l 632 547 q 418 639 544 639 q 233 559 306 639 q 160 361 160 479 q 235 163 160 244 q 421 82 310 82 q 636 178 540 82 l 669 85 q 622 44 650 64 q 535 3 593 24 q 417 -18 478 -18 q 151 91 257 -18 q 46 361 46 200 q 152 631 46 522 q 415 740 258 740 q 669 642 567 740 m 342 908 q 364 961 342 939 q 417 983 386 983 q 471 962 449 983 q 493 908 493 940 q 471 854 493 876 q 417 832 449 832 q 363 854 385 832 q 342 908 342 876 z "},"Č":{"ha":911,"x_min":54,"x_max":861,"o":"m 826 192 l 861 93 q 800 49 836 71 q 693 4 764 26 q 547 -18 622 -18 q 194 126 335 -18 q 54 486 54 269 q 196 845 54 700 q 544 990 338 990 q 846 889 721 990 l 810 789 q 547 885 692 885 q 278 770 386 885 q 171 486 171 656 q 277 201 171 314 q 550 88 383 88 q 826 192 701 88 m 543 1107 l 629 1221 l 732 1221 l 601 1040 l 485 1040 l 354 1221 l 458 1221 l 543 1107 z "},"č":{"ha":711,"x_min":46,"x_max":669,"o":"m 669 642 l 632 547 q 418 639 544 639 q 233 559 306 639 q 160 361 160 479 q 235 163 160 244 q 421 82 310 82 q 636 178 540 82 l 669 85 q 622 44 650 64 q 535 3 593 24 q 417 -18 478 -18 q 151 91 257 -18 q 46 361 46 200 q 152 631 46 522 q 415 740 258 740 q 669 642 567 740 m 408 892 l 494 1006 l 597 1006 l 467 825 l 350 825 l 219 1006 l 324 1006 l 408 892 z "},"Ď":{"ha":885,"x_min":110,"x_max":831,"o":"m 110 0 l 110 972 l 310 972 q 694 844 557 972 q 831 486 831 715 q 694 124 831 247 q 310 0 557 0 l 110 0 m 222 100 l 332 100 q 613 199 511 100 q 715 486 715 299 q 612 769 715 667 q 332 871 508 871 l 222 871 l 222 100 m 378 1107 l 464 1221 l 567 1221 l 436 1040 l 319 1040 l 189 1221 l 293 1221 l 378 1107 z "},"ď":{"ha":854,"x_min":46,"x_max":949,"o":"m 825 768 l 835 1004 l 949 1004 l 908 768 l 825 768 m 756 1004 l 756 0 l 649 0 l 649 114 q 399 -18 558 -18 q 144 88 243 -18 q 46 360 46 194 q 142 634 46 528 q 390 740 238 740 q 554 695 489 740 q 644 606 619 650 l 644 1004 l 756 1004 m 649 358 q 578 565 649 489 q 403 640 508 640 q 227 561 296 640 q 158 358 158 482 q 228 158 158 235 q 404 81 299 81 q 582 161 515 81 q 649 358 649 242 z "},"Đ":{"ha":885,"x_min":33,"x_max":836,"o":"m 33 442 l 33 542 l 114 542 l 114 972 l 315 972 q 699 844 563 972 q 836 486 836 715 q 699 124 836 249 q 315 0 563 0 l 114 0 l 114 442 l 33 442 m 226 100 l 338 100 q 617 199 515 100 q 719 486 719 299 q 617 769 719 667 q 338 871 514 871 l 226 871 l 226 542 l 428 542 l 428 442 l 226 442 l 226 100 z "},"đ":{"ha":850,"x_min":46,"x_max":847,"o":"m 756 813 l 756 0 l 649 0 l 649 114 q 399 -18 558 -18 q 144 88 243 -18 q 46 360 46 194 q 142 634 46 528 q 390 740 238 740 q 554 695 489 740 q 644 606 619 650 l 644 813 l 465 813 l 465 894 l 644 894 l 644 1004 l 756 1004 l 756 894 l 847 894 l 847 813 l 756 813 m 649 358 q 578 565 649 489 q 403 640 508 640 q 227 561 296 640 q 158 358 158 482 q 228 158 158 235 q 404 81 299 81 q 582 161 515 81 q 649 358 649 242 z "},"Ē":{"ha":658,"x_min":110,"x_max":586,"o":"m 110 0 l 110 972 l 571 972 l 571 869 l 222 869 l 222 546 l 526 546 l 526 444 l 222 444 l 222 101 l 586 101 l 586 0 l 110 0 m 183 1063 l 183 1150 l 519 1150 l 519 1063 l 183 1063 z "},"ē":{"ha":785,"x_min":47,"x_max":740,"o":"m 47 358 q 149 634 47 528 q 397 740 250 740 q 647 638 554 740 q 740 371 740 536 q 739 338 740 351 l 160 338 q 233 149 161 218 q 419 79 306 79 q 644 192 564 79 l 717 139 q 604 29 679 76 q 418 -18 529 -18 q 151 87 254 -18 q 47 358 47 192 m 165 419 l 628 419 q 557 587 622 528 q 397 646 492 646 q 239 583 307 646 q 165 419 171 519 m 235 874 l 235 961 l 571 961 l 571 874 l 235 874 z "},"Ĕ":{"ha":658,"x_min":110,"x_max":586,"o":"m 110 0 l 110 972 l 571 972 l 571 869 l 222 869 l 222 546 l 526 546 l 526 444 l 222 444 l 222 101 l 586 101 l 586 0 l 110 0 m 475 1087 q 452 1062 475 1087 q 344 1038 429 1038 q 214 1087 260 1038 q 168 1213 168 1136 l 256 1213 q 344 1114 256 1114 q 412 1141 390 1114 q 433 1213 433 1168 l 521 1213 q 475 1087 521 1136 z "},"ĕ":{"ha":785,"x_min":47,"x_max":740,"o":"m 47 358 q 149 634 47 528 q 397 740 250 740 q 647 638 554 740 q 740 371 740 536 q 739 338 740 351 l 160 338 q 233 149 161 218 q 419 79 306 79 q 644 192 564 79 l 717 139 q 604 29 679 76 q 418 -18 529 -18 q 151 87 254 -18 q 47 358 47 192 m 165 419 l 628 419 q 557 587 622 528 q 397 646 492 646 q 239 583 307 646 q 165 419 171 519 m 528 865 q 505 840 528 865 q 397 815 482 815 q 267 865 313 815 q 221 990 221 914 l 308 990 q 397 892 308 892 q 465 919 443 892 q 486 990 486 946 l 574 990 q 528 865 574 914 z "},"Ė":{"ha":658,"x_min":110,"x_max":586,"o":"m 110 0 l 110 972 l 571 972 l 571 869 l 222 869 l 222 546 l 526 546 l 526 444 l 222 444 l 222 101 l 586 101 l 586 0 l 110 0 m 288 1125 q 309 1178 288 1156 q 363 1200 331 1200 q 417 1178 394 1200 q 439 1125 439 1157 q 417 1071 439 1093 q 363 1049 394 1049 q 309 1071 331 1049 q 288 1125 288 1093 z "},"ė":{"ha":785,"x_min":47,"x_max":740,"o":"m 47 358 q 149 634 47 528 q 397 740 250 740 q 647 638 554 740 q 740 371 740 536 q 739 338 740 351 l 160 338 q 233 149 161 218 q 419 79 306 79 q 644 192 564 79 l 717 139 q 604 29 679 76 q 418 -18 529 -18 q 151 87 254 -18 q 47 358 47 192 m 165 419 l 628 419 q 557 587 622 528 q 397 646 492 646 q 239 583 307 646 q 165 419 171 519 m 326 908 q 348 961 326 939 q 401 983 369 983 q 456 962 433 983 q 478 908 478 940 q 456 854 478 876 q 401 832 433 832 q 348 854 369 832 q 326 908 326 876 z "},"Ę":{"ha":658,"x_min":110,"x_max":586,"o":"m 110 0 l 110 972 l 571 972 l 571 869 l 222 869 l 222 546 l 526 546 l 526 444 l 222 444 l 222 101 l 586 101 l 586 0 q 522 -43 556 -11 q 489 -115 489 -75 q 513 -165 489 -149 q 574 -182 538 -182 l 574 -268 q 540 -271 563 -271 q 434 -237 479 -271 q 389 -140 389 -203 q 422 -53 389 -92 q 493 0 454 -15 l 110 0 z "},"ę":{"ha":785,"x_min":47,"x_max":740,"o":"m 340 -140 q 411 -18 340 -65 q 148 89 249 -15 q 47 358 47 193 q 149 634 47 528 q 397 740 250 740 q 647 638 554 740 q 740 371 740 536 l 740 338 l 160 338 q 233 149 161 218 q 419 79 306 79 q 644 192 564 79 l 717 139 q 538 0 658 39 q 474 -43 507 -11 q 440 -115 440 -75 q 465 -165 440 -149 q 525 -182 489 -182 l 525 -268 q 492 -271 514 -271 q 385 -237 431 -271 q 340 -140 340 -203 m 165 419 l 628 419 q 557 587 622 528 q 397 646 492 646 q 240 585 306 646 q 165 419 174 525 z "},"Ě":{"ha":658,"x_min":110,"x_max":586,"o":"m 110 0 l 110 972 l 571 972 l 571 869 l 222 869 l 222 546 l 526 546 l 526 444 l 222 444 l 222 101 l 586 101 l 586 0 l 110 0 m 361 1107 l 447 1221 l 550 1221 l 419 1040 l 303 1040 l 172 1221 l 276 1221 l 361 1107 z "},"ě":{"ha":785,"x_min":47,"x_max":740,"o":"m 47 358 q 149 634 47 528 q 397 740 250 740 q 647 638 554 740 q 740 371 740 536 q 739 338 740 351 l 160 338 q 233 149 161 218 q 419 79 306 79 q 644 192 564 79 l 717 139 q 604 29 679 76 q 418 -18 529 -18 q 151 87 254 -18 q 47 358 47 192 m 165 419 l 628 419 q 557 587 622 528 q 397 646 492 646 q 239 583 307 646 q 165 419 171 519 m 399 892 l 485 1006 l 588 1006 l 457 825 l 340 825 l 210 1006 l 314 1006 l 399 892 z "},"Ĝ":{"ha":1022,"x_min":54,"x_max":940,"o":"m 546 990 q 904 849 767 990 l 832 774 q 549 885 717 885 q 277 771 382 885 q 172 485 172 657 q 278 198 172 310 q 547 86 383 86 q 686 106 621 86 q 781 147 751 126 q 832 188 811 167 l 832 392 l 615 392 l 615 490 l 940 490 l 940 139 q 543 -18 785 -18 q 194 124 333 -18 q 54 485 54 265 q 194 845 54 700 q 546 990 333 990 m 636 1040 l 550 1154 l 465 1040 l 361 1040 l 492 1221 l 608 1221 l 739 1040 l 636 1040 z "},"ĝ":{"ha":843,"x_min":46,"x_max":754,"o":"m 133 -194 l 172 -108 q 390 -168 272 -168 q 574 -116 503 -168 q 644 50 644 -64 l 644 114 q 619 81 635 99 q 574 39 604 64 q 497 -2 543 14 q 394 -18 450 -18 q 143 88 240 -18 q 46 360 46 193 q 143 633 46 526 q 393 740 240 740 q 556 696 490 740 q 649 606 621 651 l 649 722 l 754 722 l 754 100 q 392 -267 754 -267 q 133 -194 250 -267 m 649 360 q 578 564 649 488 q 401 640 507 640 q 226 562 296 640 q 157 360 157 483 q 228 159 157 236 q 404 82 299 82 q 581 161 514 82 q 649 360 649 240 m 506 825 l 419 939 l 335 825 l 231 825 l 361 1006 l 478 1006 l 608 825 l 506 825 z "},"Ğ":{"ha":1022,"x_min":54,"x_max":940,"o":"m 546 990 q 904 849 767 990 l 832 774 q 549 885 717 885 q 277 771 382 885 q 172 485 172 657 q 278 198 172 310 q 547 86 383 86 q 686 106 621 86 q 781 147 751 126 q 832 188 811 167 l 832 392 l 615 392 l 615 490 l 940 490 l 940 139 q 543 -18 785 -18 q 194 124 333 -18 q 54 485 54 265 q 194 845 54 700 q 546 990 333 990 m 671 1087 q 648 1062 671 1087 q 540 1038 625 1038 q 410 1087 456 1038 q 364 1213 364 1136 l 451 1213 q 540 1114 451 1114 q 608 1141 586 1114 q 629 1213 629 1168 l 717 1213 q 671 1087 717 1136 z "},"ğ":{"ha":843,"x_min":46,"x_max":754,"o":"m 133 -194 l 172 -108 q 390 -168 272 -168 q 574 -116 503 -168 q 644 50 644 -64 l 644 114 q 619 81 635 99 q 574 39 604 64 q 497 -2 543 14 q 394 -18 450 -18 q 143 88 240 -18 q 46 360 46 193 q 143 633 46 526 q 393 740 240 740 q 556 696 490 740 q 649 606 621 651 l 649 722 l 754 722 l 754 100 q 392 -267 754 -267 q 133 -194 250 -267 m 649 360 q 578 564 649 488 q 401 640 507 640 q 226 562 296 640 q 157 360 157 483 q 228 159 157 236 q 404 82 299 82 q 581 161 514 82 q 649 360 649 240 m 550 865 q 527 840 550 865 q 419 815 504 815 q 289 865 335 815 q 243 990 243 914 l 331 990 q 419 892 331 892 q 487 919 465 892 q 508 990 508 946 l 596 990 q 550 865 596 914 z "},"Ġ":{"ha":1022,"x_min":54,"x_max":940,"o":"m 546 990 q 904 849 767 990 l 832 774 q 549 885 717 885 q 277 771 382 885 q 172 485 172 657 q 278 198 172 310 q 547 86 383 86 q 686 106 621 86 q 781 147 751 126 q 832 188 811 167 l 832 392 l 615 392 l 615 490 l 940 490 l 940 139 q 543 -18 785 -18 q 194 124 333 -18 q 54 485 54 265 q 194 845 54 700 q 546 990 333 990 m 474 1125 q 495 1178 474 1156 q 549 1200 517 1200 q 603 1178 581 1200 q 625 1125 625 1157 q 603 1071 625 1093 q 549 1049 581 1049 q 495 1071 517 1049 q 474 1125 474 1093 z "},"ġ":{"ha":843,"x_min":46,"x_max":754,"o":"m 133 -194 l 172 -108 q 390 -168 272 -168 q 574 -116 503 -168 q 644 50 644 -64 l 644 114 q 619 81 635 99 q 574 39 604 64 q 497 -2 543 14 q 394 -18 450 -18 q 143 88 240 -18 q 46 360 46 193 q 143 633 46 526 q 393 740 240 740 q 556 696 490 740 q 649 606 621 651 l 649 722 l 754 722 l 754 100 q 392 -267 754 -267 q 133 -194 250 -267 m 649 360 q 578 564 649 488 q 401 640 507 640 q 226 562 296 640 q 157 360 157 483 q 228 159 157 236 q 404 82 299 82 q 581 161 514 82 q 649 360 649 240 m 344 908 q 367 961 344 939 q 419 983 389 983 q 474 962 451 983 q 496 908 496 940 q 474 854 496 876 q 419 832 451 832 q 366 854 388 832 q 344 908 344 876 z "},"Ģ":{"ha":1022,"x_min":54,"x_max":940,"o":"m 546 990 q 904 849 767 990 l 832 774 q 549 885 717 885 q 277 771 382 885 q 172 485 172 657 q 278 198 172 310 q 547 86 383 86 q 686 106 621 86 q 781 147 751 126 q 832 188 811 167 l 832 392 l 615 392 l 615 490 l 940 490 l 940 139 q 543 -18 785 -18 q 194 124 333 -18 q 54 485 54 265 q 194 845 54 700 q 546 990 333 990 m 482 -119 q 502 -67 482 -89 q 553 -46 522 -46 q 609 -69 588 -46 q 631 -128 631 -92 q 531 -329 631 -244 l 483 -283 q 544 -190 535 -242 q 499 -166 517 -186 q 482 -119 482 -146 z "},"ģ":{"ha":843,"x_min":46,"x_max":754,"o":"m 133 -194 l 172 -108 q 390 -168 272 -168 q 574 -116 503 -168 q 644 50 644 -64 l 644 114 q 619 81 635 99 q 574 39 604 64 q 497 -2 543 14 q 394 -18 450 -18 q 143 88 240 -18 q 46 360 46 193 q 143 633 46 526 q 393 740 240 740 q 556 696 490 740 q 649 606 621 651 l 649 722 l 754 722 l 754 100 q 392 -267 754 -267 q 133 -194 250 -267 m 649 360 q 578 564 649 488 q 401 640 507 640 q 226 562 296 640 q 157 360 157 483 q 228 159 157 236 q 404 82 299 82 q 581 161 514 82 q 649 360 649 240 m 485 871 q 465 819 485 840 q 414 797 444 797 q 358 820 379 797 q 336 879 336 843 q 436 1081 336 996 l 483 1035 q 422 942 432 993 q 467 917 450 938 q 485 871 485 897 z "},"Ĥ":{"ha":961,"x_min":110,"x_max":851,"o":"m 110 0 l 110 972 l 222 972 l 222 546 l 739 546 l 739 972 l 851 972 l 851 0 l 739 0 l 739 443 l 222 443 l 222 0 l 110 0 m 572 1040 l 486 1154 l 401 1040 l 297 1040 l 428 1221 l 544 1221 l 675 1040 l 572 1040 z "},"ĥ":{"ha":761,"x_min":94,"x_max":674,"o":"m 418 740 q 607 660 540 740 q 674 451 674 579 l 674 0 l 564 0 l 564 456 q 516 590 564 540 q 393 640 468 640 q 257 584 310 640 q 204 439 204 528 l 204 0 l 94 0 l 94 1004 l 204 1004 l 204 618 q 290 705 232 669 q 418 740 347 740 m 471 1040 l 385 1154 l 300 1040 l 196 1040 l 326 1221 l 443 1221 l 574 1040 l 471 1040 z "},"Ħ":{"ha":961,"x_min":25,"x_max":936,"o":"m 110 0 l 110 715 l 25 715 l 25 803 l 110 803 l 110 972 l 222 972 l 222 803 l 739 803 l 739 972 l 851 972 l 851 803 l 936 803 l 936 715 l 851 715 l 851 0 l 739 0 l 739 443 l 222 443 l 222 0 l 110 0 m 222 546 l 739 546 l 739 715 l 222 715 l 222 546 z "},"ħ":{"ha":761,"x_min":7,"x_max":674,"o":"m 418 740 q 607 660 540 740 q 674 451 674 579 l 674 0 l 564 0 l 564 456 q 516 590 564 540 q 393 640 468 640 q 257 584 310 640 q 204 439 204 528 l 204 0 l 94 0 l 94 815 l 7 815 l 7 897 l 94 897 l 94 1004 l 204 1004 l 204 897 l 383 897 l 383 815 l 204 815 l 204 618 q 290 705 232 669 q 418 740 347 740 z "},"Ĩ":{"ha":332,"x_min":-50,"x_max":385,"o":"m 110 0 l 110 972 l 222 972 l 222 0 l 110 0 m 257 1053 q 163 1084 218 1053 q 82 1115 107 1115 q 44 1099 58 1115 q 29 1054 31 1082 l -50 1054 q -14 1160 -50 1121 q 81 1200 22 1200 q 175 1169 118 1200 q 254 1139 232 1139 q 292 1156 278 1139 q 307 1200 306 1172 l 385 1200 q 349 1093 385 1133 q 257 1053 314 1053 z "},"ĩ":{"ha":299,"x_min":-67,"x_max":368,"o":"m 240 835 q 146 866 201 835 q 65 897 90 897 q 28 881 42 897 q 13 836 14 864 l -67 836 q -31 942 -67 903 q 64 982 6 982 q 158 951 101 982 q 238 921 215 921 q 275 938 261 921 q 290 982 289 954 l 368 982 q 333 875 368 915 q 240 835 297 835 m 94 0 l 94 722 l 204 722 l 204 0 l 94 0 z "},"Ī":{"ha":332,"x_min":1,"x_max":338,"o":"m 110 0 l 110 972 l 222 972 l 222 0 l 110 0 m 1 1063 l 1 1150 l 338 1150 l 338 1063 l 1 1063 z "},"ī":{"ha":299,"x_min":-18,"x_max":318,"o":"m -18 874 l -18 961 l 318 961 l 318 874 l -18 874 m 94 0 l 94 722 l 204 722 l 204 0 l 94 0 z "},"Ĭ":{"ha":332,"x_min":-8,"x_max":344,"o":"m 110 0 l 110 972 l 222 972 l 222 0 l 110 0 m 299 1087 q 276 1062 299 1087 q 168 1038 253 1038 q 38 1087 83 1038 q -8 1213 -8 1136 l 79 1213 q 168 1114 79 1114 q 235 1141 214 1114 q 257 1213 257 1168 l 344 1213 q 299 1087 344 1136 z "},"ĭ":{"ha":299,"x_min":-26,"x_max":326,"o":"m 281 865 q 258 840 281 865 q 150 815 235 815 q 19 865 65 815 q -26 990 -26 914 l 61 990 q 150 892 61 892 q 217 919 196 892 q 239 990 239 946 l 326 990 q 281 865 326 914 m 94 0 l 94 722 l 204 722 l 204 0 l 94 0 z "},"Į":{"ha":332,"x_min":25,"x_max":222,"o":"m 110 0 l 110 972 l 222 972 l 222 0 q 158 -43 192 -11 q 125 -115 125 -75 q 149 -165 125 -149 q 210 -182 174 -182 l 210 -268 q 176 -271 199 -271 q 70 -237 115 -271 q 25 -140 25 -203 q 58 -53 25 -92 q 129 0 90 -15 l 110 0 z "},"į":{"ha":299,"x_min":7,"x_max":225,"o":"m 94 0 l 94 722 l 204 722 l 204 0 q 140 -43 174 -11 q 107 -115 107 -75 q 131 -165 107 -149 q 192 -182 156 -182 l 192 -268 q 158 -271 181 -271 q 52 -237 97 -271 q 7 -140 7 -203 q 40 -53 7 -92 q 111 0 72 -15 l 94 0 m 74 908 q 95 961 74 939 q 149 983 117 983 q 203 962 181 983 q 225 908 225 940 q 203 854 225 876 q 149 832 181 832 q 95 854 117 832 q 74 908 74 876 z "},"İ":{"ha":332,"x_min":93,"x_max":244,"o":"m 110 0 l 110 972 l 222 972 l 222 0 l 110 0 m 93 1125 q 115 1178 93 1156 q 168 1200 136 1200 q 222 1178 200 1200 q 244 1125 244 1157 q 222 1071 244 1093 q 168 1049 200 1049 q 115 1071 136 1049 q 93 1125 93 1093 z "},"ı":{"ha":299,"x_min":94,"x_max":204,"o":"m 94 0 l 94 722 l 204 722 l 204 0 l 94 0 z "},"Ĳ":{"ha":813,"x_min":110,"x_max":701,"o":"m 110 0 l 110 972 l 222 972 l 222 0 l 110 0 m 363 6 l 375 106 q 467 93 421 93 q 589 235 589 93 l 589 972 l 701 972 l 701 219 q 642 50 701 108 q 479 -8 583 -8 q 363 6 404 -8 z "},"ĳ":{"ha":599,"x_min":74,"x_max":524,"o":"m 94 0 l 94 722 l 204 722 l 204 0 l 94 0 m 74 908 q 95 961 74 939 q 149 983 117 983 q 203 962 181 983 q 225 908 225 940 q 203 854 225 876 q 149 832 181 832 q 95 854 117 832 q 74 908 74 876 m 393 -21 l 393 722 l 503 722 l 503 -24 q 278 -265 503 -265 l 240 -262 l 240 -168 q 271 -169 258 -169 q 393 -21 393 -169 m 372 908 q 394 961 372 939 q 447 983 417 983 q 501 962 479 983 q 524 908 524 940 q 501 854 524 876 q 447 832 479 832 q 394 854 415 832 q 372 908 372 876 z "},"Ĵ":{"ha":479,"x_min":31,"x_max":497,"o":"m 31 6 l 43 106 q 135 93 89 93 q 257 235 257 93 l 257 972 l 369 972 l 369 219 q 310 50 369 108 q 147 -8 251 -8 q 31 6 72 -8 m 394 1040 l 308 1154 l 224 1040 l 119 1040 l 250 1221 l 367 1221 l 497 1040 l 394 1040 z "},"ĵ":{"ha":299,"x_min":-58,"x_max":339,"o":"m 94 -21 l 94 722 l 204 722 l 204 -24 q -21 -265 204 -265 l -58 -262 l -58 -168 q -28 -169 -40 -169 q 94 -21 94 -169 m 236 825 l 150 939 l 65 825 l -39 825 l 92 1006 l 208 1006 l 339 825 l 236 825 z "},"Ķ":{"ha":785,"x_min":110,"x_max":763,"o":"m 110 0 l 110 972 l 222 972 l 222 525 l 610 972 l 746 972 l 338 507 l 763 0 l 625 0 l 222 489 l 222 0 l 110 0 m 343 -119 q 363 -67 343 -89 q 414 -46 383 -46 q 470 -69 449 -46 q 492 -128 492 -92 q 392 -329 492 -244 l 344 -283 q 406 -190 396 -242 q 360 -166 378 -186 q 343 -119 343 -146 z "},"ķ":{"ha":664,"x_min":94,"x_max":656,"o":"m 94 0 l 94 1004 l 204 1004 l 204 413 l 499 722 l 638 722 l 326 399 l 656 0 l 514 0 l 204 385 l 204 0 l 94 0 m 281 -119 q 301 -67 281 -89 q 351 -46 321 -46 q 408 -69 386 -46 q 429 -128 429 -92 q 329 -329 429 -244 l 282 -283 q 343 -190 333 -242 q 298 -166 315 -186 q 281 -119 281 -146 z "},"ĸ":{"ha":664,"x_min":94,"x_max":656,"o":"m 94 0 l 94 722 l 204 722 l 204 404 l 499 722 l 638 722 l 326 390 l 656 0 l 514 0 l 204 376 l 204 0 l 94 0 z "},"Ĺ":{"ha":624,"x_min":110,"x_max":586,"o":"m 110 0 l 110 972 l 222 972 l 222 101 l 586 101 l 586 0 l 110 0 m 118 1033 l 217 1231 l 338 1231 l 214 1033 l 118 1033 z "},"ĺ":{"ha":299,"x_min":94,"x_max":314,"o":"m 94 0 l 94 1004 l 204 1004 l 204 0 l 94 0 m 94 1042 l 193 1239 l 314 1239 l 190 1042 l 94 1042 z "},"Ļ":{"ha":624,"x_min":110,"x_max":586,"o":"m 110 0 l 110 972 l 222 972 l 222 101 l 586 101 l 586 0 l 110 0 m 286 -119 q 306 -67 286 -89 q 357 -46 326 -46 q 413 -69 392 -46 q 435 -128 435 -92 q 335 -329 435 -244 l 288 -283 q 349 -190 339 -242 q 303 -166 321 -186 q 286 -119 286 -146 z "},"ļ":{"ha":299,"x_min":79,"x_max":228,"o":"m 94 0 l 94 1004 l 204 1004 l 204 0 l 94 0 m 79 -119 q 99 -67 79 -89 q 150 -46 119 -46 q 206 -69 185 -46 q 228 -128 228 -92 q 128 -329 228 -244 l 81 -283 q 142 -190 132 -242 q 97 -166 114 -186 q 79 -119 79 -146 z "},"Ľ":{"ha":632,"x_min":110,"x_max":586,"o":"m 392 736 l 401 972 l 515 972 l 475 736 l 392 736 m 110 0 l 110 972 l 222 972 l 222 101 l 586 101 l 586 0 l 110 0 z "},"ľ":{"ha":304,"x_min":94,"x_max":379,"o":"m 256 768 l 265 1004 l 379 1004 l 339 768 l 256 768 m 94 0 l 94 1004 l 204 1004 l 204 0 l 94 0 z "},"Ŀ":{"ha":624,"x_min":110,"x_max":586,"o":"m 110 0 l 110 972 l 222 972 l 222 101 l 586 101 l 586 0 l 110 0 m 387 456 q 375 467 387 456 q 364 511 364 479 q 387 566 364 543 q 442 589 410 589 q 497 566 474 589 q 521 511 521 543 q 497 456 521 479 q 442 432 474 432 q 387 456 410 432 z "},"ŀ":{"ha":454,"x_min":94,"x_max":422,"o":"m 94 0 l 94 1004 l 204 1004 l 204 0 l 94 0 m 288 399 q 277 410 288 399 q 265 454 265 422 q 288 509 265 486 q 343 532 311 532 q 399 509 375 532 q 422 454 422 486 q 399 399 422 422 q 343 375 375 375 q 288 399 311 375 z "},"Ł":{"ha":624,"x_min":28,"x_max":586,"o":"m 28 333 l 28 442 l 110 490 l 110 972 l 222 972 l 222 556 l 394 661 l 394 549 l 222 446 l 222 101 l 586 101 l 586 0 l 110 0 l 110 381 l 28 333 z "},"ł":{"ha":350,"x_min":25,"x_max":321,"o":"m 25 385 l 25 496 l 115 554 l 115 1004 l 225 1004 l 225 622 l 321 686 l 321 572 l 225 510 l 225 0 l 115 0 l 115 443 l 25 385 z "},"Ń":{"ha":978,"x_min":108,"x_max":868,"o":"m 108 0 l 108 972 l 221 972 l 757 199 l 757 972 l 868 972 l 868 0 l 757 0 l 221 771 l 221 0 l 108 0 m 439 1033 l 538 1231 l 658 1231 l 535 1033 l 439 1033 z "},"ń":{"ha":761,"x_min":94,"x_max":672,"o":"m 418 740 q 606 660 540 740 q 672 451 672 579 l 672 0 l 563 0 l 563 456 q 515 590 563 540 q 392 640 467 640 q 256 584 308 640 q 204 439 204 528 l 204 0 l 94 0 l 94 722 l 203 722 l 203 618 q 288 705 231 669 q 418 740 346 740 m 319 810 l 418 1007 l 539 1007 l 415 810 l 319 810 z "},"Ņ":{"ha":978,"x_min":108,"x_max":868,"o":"m 108 0 l 108 972 l 221 972 l 757 199 l 757 972 l 868 972 l 868 0 l 757 0 l 221 771 l 221 0 l 108 0 m 414 -119 q 434 -67 414 -89 q 485 -46 454 -46 q 541 -69 519 -46 q 563 -128 563 -92 q 463 -329 563 -244 l 415 -283 q 476 -190 467 -242 q 431 -166 449 -186 q 414 -119 414 -146 z "},"ņ":{"ha":761,"x_min":94,"x_max":672,"o":"m 418 740 q 606 660 540 740 q 672 451 672 579 l 672 0 l 563 0 l 563 456 q 515 590 563 540 q 392 640 467 640 q 256 584 308 640 q 204 439 204 528 l 204 0 l 94 0 l 94 722 l 203 722 l 203 618 q 288 705 231 669 q 418 740 346 740 m 307 -119 q 327 -67 307 -89 q 378 -46 347 -46 q 434 -69 413 -46 q 456 -128 456 -92 q 356 -329 456 -244 l 308 -283 q 369 -190 360 -242 q 324 -166 342 -186 q 307 -119 307 -146 z "},"Ň":{"ha":978,"x_min":108,"x_max":868,"o":"m 108 0 l 108 972 l 221 972 l 757 199 l 757 972 l 868 972 l 868 0 l 757 0 l 221 771 l 221 0 l 108 0 m 490 1107 l 576 1221 l 679 1221 l 549 1040 l 432 1040 l 301 1221 l 406 1221 l 490 1107 z "},"ň":{"ha":761,"x_min":94,"x_max":672,"o":"m 418 740 q 606 660 540 740 q 672 451 672 579 l 672 0 l 563 0 l 563 456 q 515 590 563 540 q 392 640 467 640 q 256 584 308 640 q 204 439 204 528 l 204 0 l 94 0 l 94 722 l 203 722 l 203 618 q 288 705 231 669 q 418 740 346 740 m 396 892 l 482 1006 l 585 1006 l 454 825 l 338 825 l 207 1006 l 311 1006 l 396 892 z "},"ŉ":{"ha":796,"x_min":-19,"x_max":707,"o":"m 453 740 q 641 660 575 740 q 707 451 707 579 l 707 0 l 597 0 l 597 456 q 549 590 597 540 q 426 640 501 640 q 291 584 343 640 q 239 439 239 528 l 239 0 l 129 0 l 129 722 l 238 722 l 238 618 q 323 705 265 669 q 453 740 381 740 m -19 921 q 1 973 -19 951 q 51 994 21 994 q 108 972 86 994 q 129 913 129 949 q 29 711 129 796 l -18 757 q 43 850 33 799 q -2 874 15 854 q -19 921 -19 894 z "},"Ŋ":{"ha":978,"x_min":108,"x_max":868,"o":"m 531 -250 l 543 -150 q 635 -162 589 -162 q 757 -21 757 -162 l 757 0 l 221 792 l 221 0 l 108 0 l 108 972 l 221 972 l 757 178 l 757 972 l 868 972 l 868 -36 q 810 -206 868 -147 q 647 -264 751 -264 q 531 -250 572 -264 z "},"ŋ":{"ha":761,"x_min":94,"x_max":672,"o":"m 563 -21 l 563 456 q 515 590 563 540 q 392 640 467 640 q 256 584 308 640 q 204 439 204 528 l 204 0 l 94 0 l 94 722 l 203 722 l 203 618 q 288 705 231 669 q 418 740 346 740 q 606 660 540 740 q 672 451 672 579 l 672 -24 q 447 -265 672 -265 l 410 -262 l 410 -168 q 442 -169 428 -169 q 563 -21 563 -169 z "},"Ō":{"ha":1099,"x_min":53,"x_max":1044,"o":"m 53 486 q 195 846 53 701 q 549 990 338 990 q 902 845 760 990 q 1044 486 1044 700 q 902 126 1044 271 q 547 -18 760 -18 q 194 126 336 -18 q 53 486 53 269 m 169 486 q 278 201 169 314 q 549 88 386 88 q 819 201 711 88 q 928 486 928 314 q 819 771 928 657 q 549 885 710 885 q 278 771 388 885 q 169 486 169 657 m 381 1063 l 381 1150 l 717 1150 l 717 1063 l 381 1063 z "},"ō":{"ha":846,"x_min":46,"x_max":800,"o":"m 158 361 q 233 160 158 239 q 422 82 307 82 q 614 161 539 82 q 689 361 689 240 q 614 561 689 482 q 422 640 539 640 q 233 560 307 640 q 158 361 158 481 m 153 90 q 99 143 153 90 q 46 361 46 197 q 153 633 46 525 q 424 740 261 740 q 693 632 586 740 q 800 361 800 524 q 692 90 800 199 q 422 -18 585 -18 q 153 90 260 -18 m 258 874 l 258 961 l 594 961 l 594 874 l 258 874 z "},"Ŏ":{"ha":1099,"x_min":53,"x_max":1044,"o":"m 53 486 q 195 846 53 701 q 549 990 338 990 q 902 845 760 990 q 1044 486 1044 700 q 902 126 1044 271 q 547 -18 760 -18 q 194 126 336 -18 q 53 486 53 269 m 169 486 q 278 201 169 314 q 549 88 386 88 q 819 201 711 88 q 928 486 928 314 q 819 771 928 657 q 549 885 710 885 q 278 771 388 885 q 169 486 169 657 m 683 1087 q 660 1062 683 1087 q 553 1038 638 1038 q 422 1087 468 1038 q 376 1213 376 1136 l 464 1213 q 553 1114 464 1114 q 620 1141 599 1114 q 642 1213 642 1168 l 729 1213 q 683 1087 729 1136 z "},"ŏ":{"ha":846,"x_min":46,"x_max":800,"o":"m 158 361 q 233 160 158 239 q 422 82 307 82 q 614 161 539 82 q 689 361 689 240 q 614 561 689 482 q 422 640 539 640 q 233 560 307 640 q 158 361 158 481 m 153 90 q 99 143 153 90 q 46 361 46 197 q 153 633 46 525 q 424 740 261 740 q 693 632 586 740 q 800 361 800 524 q 692 90 800 199 q 422 -18 585 -18 q 153 90 260 -18 m 553 865 q 530 840 553 865 q 422 815 507 815 q 292 865 338 815 q 246 990 246 914 l 333 990 q 422 892 333 892 q 490 919 468 892 q 511 990 511 946 l 599 990 q 553 865 599 914 z "},"Ő":{"ha":1099,"x_min":53,"x_max":1044,"o":"m 53 486 q 195 846 53 701 q 549 990 338 990 q 902 845 760 990 q 1044 486 1044 700 q 902 126 1044 271 q 547 -18 760 -18 q 194 126 336 -18 q 53 486 53 269 m 169 486 q 278 201 169 314 q 549 88 386 88 q 819 201 711 88 q 928 486 928 314 q 819 771 928 657 q 549 885 710 885 q 278 771 388 885 q 169 486 169 657 m 560 1033 l 658 1231 l 774 1231 l 650 1033 l 560 1033 m 385 1033 l 483 1231 l 599 1231 l 475 1033 l 385 1033 z "},"ő":{"ha":846,"x_min":46,"x_max":800,"o":"m 158 361 q 233 160 158 239 q 422 82 307 82 q 614 161 539 82 q 689 361 689 240 q 614 561 689 482 q 422 640 539 640 q 233 560 307 640 q 158 361 158 481 m 153 90 q 99 143 153 90 q 46 361 46 197 q 153 633 46 525 q 424 740 261 740 q 693 632 586 740 q 800 361 800 524 q 692 90 800 199 q 422 -18 585 -18 q 153 90 260 -18 m 450 810 l 549 1007 l 664 1007 l 540 810 l 450 810 m 275 810 l 374 1007 l 489 1007 l 365 810 l 275 810 z "},"Œ":{"ha":1500,"x_min":53,"x_max":1428,"o":"m 53 486 q 195 846 53 701 q 549 990 338 990 q 685 972 615 990 l 1413 972 l 1413 869 l 876 869 q 1040 546 1019 742 l 1368 546 l 1368 444 l 1043 444 q 875 101 1026 233 l 1428 101 l 1428 0 l 683 0 q 547 -18 614 -18 q 194 126 336 -18 q 53 486 53 269 m 169 486 q 278 201 169 314 q 549 88 386 88 q 819 201 711 88 q 928 486 928 314 q 819 771 928 657 q 549 885 710 885 q 278 771 388 885 q 169 486 169 657 z "},"œ":{"ha":1424,"x_min":46,"x_max":1381,"o":"m 153 90 q 99 143 153 90 q 46 361 46 197 q 153 633 46 525 q 424 740 261 740 q 611 692 528 740 q 742 560 694 643 q 863 692 785 644 q 1036 740 942 740 q 1288 638 1194 740 q 1381 371 1381 536 q 1379 338 1381 343 l 800 338 q 873 148 801 217 q 1060 79 944 79 q 1283 192 1203 79 l 1357 139 q 1244 28 1318 75 q 1058 -18 1169 -18 q 868 30 951 -18 q 742 163 785 78 q 611 31 696 79 q 422 -18 526 -18 q 153 90 260 -18 m 158 361 q 233 160 158 239 q 422 82 307 82 q 614 161 539 82 q 689 361 689 240 q 614 561 689 482 q 422 640 539 640 q 233 560 307 640 q 158 361 158 481 m 804 419 l 1267 419 q 1197 587 1261 528 q 1036 646 1132 646 q 879 585 944 646 q 804 419 814 525 z "},"Ŕ":{"ha":760,"x_min":110,"x_max":732,"o":"m 110 0 l 110 972 l 357 972 q 582 901 504 972 q 660 703 660 831 q 616 542 660 613 q 490 446 572 472 l 732 0 l 607 0 l 388 422 l 222 422 l 222 0 l 110 0 m 222 521 l 357 521 q 542 701 542 521 q 350 872 542 872 l 222 872 l 222 521 m 297 1033 l 396 1231 l 517 1231 l 393 1033 l 297 1033 z "},"ŕ":{"ha":446,"x_min":94,"x_max":418,"o":"m 418 740 l 418 631 q 204 346 204 631 l 204 0 l 94 0 l 94 722 l 203 722 l 203 601 q 281 700 222 660 q 418 740 340 740 m 192 810 l 290 1007 l 411 1007 l 288 810 l 192 810 z "},"Ŗ":{"ha":760,"x_min":110,"x_max":732,"o":"m 110 0 l 110 972 l 357 972 q 582 901 504 972 q 660 703 660 831 q 616 542 660 613 q 490 446 572 472 l 732 0 l 607 0 l 388 422 l 222 422 l 222 0 l 110 0 m 222 521 l 357 521 q 542 701 542 521 q 350 872 542 872 l 222 872 l 222 521 m 313 -119 q 333 -67 313 -89 q 383 -46 353 -46 q 440 -69 418 -46 q 461 -128 461 -92 q 361 -329 461 -244 l 314 -283 q 375 -190 365 -242 q 330 -166 347 -186 q 313 -119 313 -146 z "},"ŗ":{"ha":446,"x_min":94,"x_max":418,"o":"m 418 740 l 418 631 q 204 346 204 631 l 204 0 l 94 0 l 94 722 l 203 722 l 203 601 q 281 700 222 660 q 418 740 340 740 m 107 -119 q 127 -67 107 -89 q 178 -46 147 -46 q 234 -69 213 -46 q 256 -128 256 -92 q 156 -329 256 -244 l 108 -283 q 169 -190 160 -242 q 124 -166 142 -186 q 107 -119 107 -146 z "},"Ř":{"ha":760,"x_min":110,"x_max":732,"o":"m 110 0 l 110 972 l 357 972 q 582 901 504 972 q 660 703 660 831 q 616 542 660 613 q 490 446 572 472 l 732 0 l 607 0 l 388 422 l 222 422 l 222 0 l 110 0 m 222 521 l 357 521 q 542 701 542 521 q 350 872 542 872 l 222 872 l 222 521 m 354 1107 l 440 1221 l 543 1221 l 413 1040 l 296 1040 l 165 1221 l 269 1221 l 354 1107 z "},"ř":{"ha":446,"x_min":53,"x_max":431,"o":"m 418 740 l 418 631 q 204 346 204 631 l 204 0 l 94 0 l 94 722 l 203 722 l 203 601 q 281 700 222 660 q 418 740 340 740 m 242 892 l 328 1006 l 431 1006 l 300 825 l 183 825 l 53 1006 l 157 1006 l 242 892 z "},"Ś":{"ha":703,"x_min":47,"x_max":646,"o":"m 47 196 l 143 238 q 356 86 196 86 q 483 129 435 86 q 532 247 532 172 q 498 347 532 304 q 414 413 464 389 q 304 468 364 438 q 194 528 244 499 q 110 613 144 558 q 76 742 76 668 q 152 919 76 849 q 354 990 228 990 q 537 931 469 990 q 629 804 604 872 l 535 765 q 353 888 479 888 q 232 846 275 888 q 189 742 189 804 q 236 637 189 681 q 350 563 283 593 q 484 497 417 532 q 599 401 551 463 q 646 254 646 340 q 565 59 646 136 q 351 -18 485 -18 q 149 46 224 -18 q 47 196 75 110 m 288 1033 l 386 1231 l 507 1231 l 383 1033 l 288 1033 z "},"ś":{"ha":579,"x_min":40,"x_max":538,"o":"m 40 136 l 117 186 q 297 75 176 75 q 392 106 354 75 q 431 190 431 138 q 393 267 431 236 q 303 317 356 297 q 197 361 250 338 q 106 431 143 385 q 68 544 68 476 q 134 687 68 633 q 300 740 200 740 q 448 697 390 740 q 524 601 506 653 l 443 556 q 293 649 397 649 q 208 622 242 649 q 174 549 174 594 q 211 474 174 504 q 302 425 249 444 q 409 383 356 406 q 500 313 463 360 q 538 196 538 265 q 468 42 538 101 q 292 -18 399 -18 q 40 136 113 -18 m 222 810 l 321 1007 l 442 1007 l 318 810 l 222 810 z "},"Ŝ":{"ha":703,"x_min":47,"x_max":646,"o":"m 47 196 l 143 238 q 356 86 196 86 q 483 129 435 86 q 532 247 532 172 q 498 347 532 304 q 414 413 464 389 q 304 468 364 438 q 194 528 244 499 q 110 613 144 558 q 76 742 76 668 q 152 919 76 849 q 354 990 228 990 q 537 931 469 990 q 629 804 604 872 l 535 765 q 353 888 479 888 q 232 846 275 888 q 189 742 189 804 q 236 637 189 681 q 350 563 283 593 q 484 497 417 532 q 599 401 551 463 q 646 254 646 340 q 565 59 646 136 q 351 -18 485 -18 q 149 46 224 -18 q 47 196 75 110 m 439 1040 l 353 1154 l 268 1040 l 164 1040 l 294 1221 l 411 1221 l 542 1040 l 439 1040 z "},"ŝ":{"ha":579,"x_min":40,"x_max":538,"o":"m 40 136 l 117 186 q 297 75 176 75 q 392 106 354 75 q 431 190 431 138 q 393 267 431 236 q 303 317 356 297 q 197 361 250 338 q 106 431 143 385 q 68 544 68 476 q 134 687 68 633 q 300 740 200 740 q 448 697 390 740 q 524 601 506 653 l 443 556 q 293 649 397 649 q 208 622 242 649 q 174 549 174 594 q 211 474 174 504 q 302 425 249 444 q 409 383 356 406 q 500 313 463 360 q 538 196 538 265 q 468 42 538 101 q 292 -18 399 -18 q 40 136 113 -18 m 388 825 l 301 939 l 217 825 l 113 825 l 243 1006 l 360 1006 l 490 825 l 388 825 z "},"Ş":{"ha":703,"x_min":47,"x_max":646,"o":"m 47 196 l 143 238 q 356 86 196 86 q 483 129 435 86 q 532 247 532 172 q 498 347 532 304 q 414 413 464 389 q 304 468 364 438 q 194 528 244 499 q 110 613 144 558 q 76 742 76 668 q 152 919 76 849 q 354 990 228 990 q 537 931 469 990 q 629 804 604 872 l 535 765 q 353 888 479 888 q 232 846 275 888 q 189 742 189 804 q 236 637 189 681 q 350 563 283 593 q 484 497 417 532 q 599 401 551 463 q 646 254 646 340 q 574 69 646 144 q 382 -17 503 -7 l 375 -65 q 456 -103 426 -71 q 486 -183 486 -135 q 442 -281 486 -249 q 329 -312 397 -312 q 271 -306 292 -312 l 283 -235 q 325 -239 306 -239 q 403 -182 403 -239 q 324 -125 403 -125 l 297 -128 l 313 -15 q 138 56 203 -6 q 47 196 72 117 z "},"ş":{"ha":579,"x_min":40,"x_max":538,"o":"m 40 136 l 117 186 q 297 75 176 75 q 392 106 354 75 q 431 190 431 138 q 393 267 431 236 q 303 317 356 297 q 197 361 250 338 q 106 431 143 385 q 68 544 68 476 q 134 687 68 633 q 300 740 200 740 q 448 697 390 740 q 524 601 506 653 l 443 556 q 293 649 397 649 q 208 622 242 649 q 174 549 174 594 q 211 474 174 504 q 302 425 249 444 q 409 383 356 406 q 500 313 463 360 q 538 196 538 265 q 476 49 538 107 q 318 -17 414 -10 l 311 -65 q 392 -103 363 -71 q 422 -183 422 -135 q 378 -281 422 -249 q 265 -312 333 -312 q 207 -306 228 -312 l 219 -235 q 261 -239 242 -239 q 339 -182 339 -239 q 260 -125 339 -125 l 233 -128 l 249 -15 q 40 136 100 3 z "},"Š":{"ha":703,"x_min":47,"x_max":646,"o":"m 47 196 l 143 238 q 356 86 196 86 q 483 129 435 86 q 532 247 532 172 q 498 347 532 304 q 414 413 464 389 q 304 468 364 438 q 194 528 244 499 q 110 613 144 558 q 76 742 76 668 q 152 919 76 849 q 354 990 228 990 q 537 931 469 990 q 629 804 604 872 l 535 765 q 353 888 479 888 q 232 846 275 888 q 189 742 189 804 q 236 637 189 681 q 350 563 283 593 q 484 497 417 532 q 599 401 551 463 q 646 254 646 340 q 565 59 646 136 q 351 -18 485 -18 q 149 46 224 -18 q 47 196 75 110 m 349 1107 l 435 1221 l 538 1221 l 407 1040 l 290 1040 l 160 1221 l 264 1221 l 349 1107 z "},"š":{"ha":579,"x_min":40,"x_max":538,"o":"m 40 136 l 117 186 q 297 75 176 75 q 392 106 354 75 q 431 190 431 138 q 393 267 431 236 q 303 317 356 297 q 197 361 250 338 q 106 431 143 385 q 68 544 68 476 q 134 687 68 633 q 300 740 200 740 q 448 697 390 740 q 524 601 506 653 l 443 556 q 293 649 397 649 q 208 622 242 649 q 174 549 174 594 q 211 474 174 504 q 302 425 249 444 q 409 383 356 406 q 500 313 463 360 q 538 196 538 265 q 468 42 538 101 q 292 -18 399 -18 q 40 136 113 -18 m 300 892 l 386 1006 l 489 1006 l 358 825 l 242 825 l 111 1006 l 215 1006 l 300 892 z "},"Ţ":{"ha":710,"x_min":29,"x_max":665,"o":"m 292 0 l 292 869 l 29 869 l 29 972 l 665 972 l 665 869 l 404 869 l 404 0 l 375 0 l 367 -65 q 448 -103 418 -71 q 478 -183 478 -135 q 433 -281 478 -249 q 321 -312 389 -312 q 263 -306 283 -312 l 275 -235 q 317 -239 297 -239 q 394 -182 394 -239 q 315 -125 394 -125 l 289 -128 l 306 0 l 292 0 z "},"ţ":{"ha":410,"x_min":18,"x_max":378,"o":"m 103 722 l 103 874 l 213 874 l 213 722 l 371 722 l 371 629 l 213 629 l 213 257 q 242 125 213 160 q 346 90 272 90 l 376 92 l 376 -6 q 310 -10 347 -10 l 275 -7 l 267 -65 q 348 -103 318 -71 q 378 -183 378 -135 q 333 -281 378 -249 q 221 -312 289 -312 q 163 -306 183 -312 l 175 -235 q 217 -239 197 -239 q 294 -182 294 -239 q 215 -125 294 -125 l 189 -128 l 208 11 q 103 247 103 64 l 103 629 l 18 629 l 18 722 l 103 722 z "},"Ť":{"ha":710,"x_min":29,"x_max":665,"o":"m 292 0 l 292 869 l 29 869 l 29 972 l 665 972 l 665 869 l 404 869 l 404 0 l 292 0 m 350 1107 l 436 1221 l 539 1221 l 408 1040 l 292 1040 l 161 1221 l 265 1221 l 350 1107 z "},"ť":{"ha":410,"x_min":18,"x_max":408,"o":"m 285 774 l 294 1004 l 408 1004 l 368 774 l 285 774 m 103 722 l 103 874 l 213 874 l 213 722 l 371 722 l 371 629 l 213 629 l 213 257 q 242 125 213 160 q 346 90 272 90 l 376 92 l 376 -6 q 310 -10 347 -10 q 103 247 103 -10 l 103 629 l 18 629 l 18 722 l 103 722 z "},"Ŧ":{"ha":710,"x_min":29,"x_max":665,"o":"m 117 475 l 117 565 l 292 565 l 292 869 l 29 869 l 29 972 l 665 972 l 665 869 l 404 869 l 404 565 l 597 565 l 597 475 l 404 475 l 404 0 l 292 0 l 292 475 l 117 475 z "},"ŧ":{"ha":410,"x_min":18,"x_max":376,"o":"m 103 247 l 103 388 l 18 388 l 18 471 l 103 471 l 103 629 l 18 629 l 18 722 l 103 722 l 103 874 l 213 874 l 213 722 l 371 722 l 371 629 l 213 629 l 213 471 l 367 471 l 367 388 l 213 388 l 213 246 q 243 124 213 157 q 346 90 274 90 l 376 92 l 376 -6 q 310 -10 347 -10 q 103 247 103 -10 z "},"Ũ":{"ha":933,"x_min":104,"x_max":829,"o":"m 467 -18 q 199 81 294 -18 q 104 349 104 181 l 104 972 l 217 972 l 217 350 q 281 156 217 226 q 467 86 346 86 q 653 157 588 86 q 718 351 718 228 l 718 972 l 829 972 l 829 350 q 733 83 829 183 q 467 -18 638 -18 m 569 1053 q 475 1084 531 1053 q 394 1115 419 1115 q 357 1099 371 1115 q 342 1054 343 1082 l 263 1054 q 299 1160 263 1121 q 393 1200 335 1200 q 488 1169 431 1200 q 567 1139 544 1139 q 604 1156 590 1139 q 619 1200 618 1172 l 697 1200 q 662 1093 697 1133 q 569 1053 626 1053 z "},"ũ":{"ha":754,"x_min":88,"x_max":667,"o":"m 343 -18 q 154 63 221 -18 q 88 271 88 143 l 88 722 l 197 722 l 197 267 q 245 132 197 182 q 368 82 293 82 q 503 138 451 82 q 556 283 556 194 l 556 722 l 667 722 l 667 0 l 557 0 l 557 104 q 472 17 531 53 q 343 -18 414 -18 m 471 835 q 376 866 432 835 q 296 897 321 897 q 258 881 272 897 q 243 836 244 864 l 164 836 q 200 942 164 903 q 294 982 236 982 q 389 951 332 982 q 468 921 446 921 q 506 938 492 921 q 521 982 519 954 l 599 982 q 563 875 599 915 q 471 835 528 835 z "},"Ū":{"ha":938,"x_min":104,"x_max":829,"o":"m 467 -18 q 199 81 294 -18 q 104 349 104 181 l 104 972 l 217 972 l 217 350 q 281 156 217 226 q 467 86 346 86 q 653 157 588 86 q 718 351 718 228 l 718 972 l 829 972 l 829 350 q 733 83 829 183 q 467 -18 638 -18 m 311 1063 l 311 1150 l 647 1150 l 647 1063 l 311 1063 z "},"ū":{"ha":754,"x_min":88,"x_max":667,"o":"m 343 -18 q 154 63 221 -18 q 88 271 88 143 l 88 722 l 197 722 l 197 267 q 245 132 197 182 q 368 82 293 82 q 503 138 451 82 q 556 283 556 194 l 556 722 l 667 722 l 667 0 l 557 0 l 557 104 q 472 17 531 53 q 343 -18 414 -18 m 215 874 l 215 961 l 551 961 l 551 874 l 215 874 z "},"Ŭ":{"ha":933,"x_min":104,"x_max":829,"o":"m 467 -18 q 199 81 294 -18 q 104 349 104 181 l 104 972 l 217 972 l 217 350 q 281 156 217 226 q 467 86 346 86 q 653 157 588 86 q 718 351 718 228 l 718 972 l 829 972 l 829 350 q 733 83 829 183 q 467 -18 638 -18 m 604 1087 q 581 1062 604 1087 q 474 1038 558 1038 q 343 1087 389 1038 q 297 1213 297 1136 l 385 1213 q 474 1114 385 1114 q 541 1141 519 1114 q 563 1213 563 1168 l 650 1213 q 604 1087 650 1136 z "},"ŭ":{"ha":754,"x_min":88,"x_max":667,"o":"m 343 -18 q 154 63 221 -18 q 88 271 88 143 l 88 722 l 197 722 l 197 267 q 245 132 197 182 q 368 82 293 82 q 503 138 451 82 q 556 283 556 194 l 556 722 l 667 722 l 667 0 l 557 0 l 557 104 q 472 17 531 53 q 343 -18 414 -18 m 511 865 q 488 840 511 865 q 381 815 465 815 q 250 865 296 815 q 204 990 204 914 l 292 990 q 381 892 292 892 q 448 919 426 892 q 469 990 469 946 l 557 990 q 511 865 557 914 z "},"Ů":{"ha":933,"x_min":104,"x_max":829,"o":"m 467 -18 q 199 81 294 -18 q 104 349 104 181 l 104 972 l 217 972 l 217 350 q 281 156 217 226 q 467 86 346 86 q 653 157 588 86 q 718 351 718 228 l 718 972 l 829 972 l 829 350 q 733 83 829 183 q 467 -18 638 -18 m 385 1062 q 368 1079 385 1062 q 350 1149 350 1096 q 385 1235 350 1201 q 474 1269 421 1269 q 565 1236 529 1269 q 600 1150 600 1203 q 565 1063 600 1097 q 475 1028 529 1028 q 385 1062 421 1028 m 433 1191 q 426 1183 433 1191 q 418 1149 418 1175 q 433 1106 418 1122 q 475 1090 449 1090 q 517 1106 501 1090 q 532 1150 532 1122 q 517 1191 532 1175 q 474 1207 501 1207 q 433 1191 449 1207 z "},"ů":{"ha":754,"x_min":88,"x_max":667,"o":"m 343 -18 q 154 63 221 -18 q 88 271 88 143 l 88 722 l 197 722 l 197 267 q 245 132 197 182 q 368 82 293 82 q 503 138 451 82 q 556 283 556 194 l 556 722 l 667 722 l 667 0 l 557 0 l 557 104 q 472 17 531 53 q 343 -18 414 -18 m 292 835 q 275 852 292 835 q 257 922 257 869 q 292 1009 257 975 q 381 1043 328 1043 q 472 1010 436 1043 q 507 924 507 976 q 472 836 507 871 q 382 801 436 801 q 292 835 328 801 m 340 965 q 333 957 340 965 q 325 922 325 949 q 340 880 325 896 q 382 864 356 864 q 424 880 408 864 q 439 924 439 896 q 424 965 439 949 q 381 981 408 981 q 340 965 356 981 z "},"Ű":{"ha":938,"x_min":104,"x_max":829,"o":"m 467 -18 q 199 81 294 -18 q 104 349 104 181 l 104 972 l 217 972 l 217 350 q 281 156 217 226 q 467 86 346 86 q 653 157 588 86 q 718 351 718 228 l 718 972 l 829 972 l 829 350 q 733 83 829 183 q 467 -18 638 -18 m 493 1033 l 592 1231 l 707 1231 l 583 1033 l 493 1033 m 318 1033 l 417 1231 l 532 1231 l 408 1033 l 318 1033 z "},"ű":{"ha":754,"x_min":88,"x_max":667,"o":"m 343 -18 q 154 63 221 -18 q 88 271 88 143 l 88 722 l 197 722 l 197 267 q 245 132 197 182 q 368 82 293 82 q 503 138 451 82 q 556 283 556 194 l 556 722 l 667 722 l 667 0 l 557 0 l 557 104 q 472 17 531 53 q 343 -18 414 -18 m 406 810 l 504 1007 l 619 1007 l 496 810 l 406 810 m 231 810 l 329 1007 l 444 1007 l 321 810 l 231 810 z "},"Ų":{"ha":933,"x_min":104,"x_max":829,"o":"m 468 -18 q 199 81 294 -18 q 104 349 104 181 l 104 972 l 217 972 l 217 350 q 281 156 217 226 q 467 86 346 86 q 653 157 588 86 q 718 351 718 228 l 718 972 l 829 972 l 829 350 q 767 124 829 217 q 590 -1 704 32 q 528 -45 560 -14 q 497 -115 497 -76 q 522 -165 497 -149 q 582 -182 546 -182 l 582 -268 q 549 -271 571 -271 q 442 -237 488 -271 q 397 -140 397 -203 q 468 -18 397 -65 z "},"ų":{"ha":754,"x_min":88,"x_max":667,"o":"m 469 -140 q 502 -53 469 -92 q 574 0 535 -15 l 557 0 l 557 104 q 472 17 531 53 q 343 -18 414 -18 q 154 63 221 -18 q 88 271 88 143 l 88 722 l 197 722 l 197 267 q 245 132 197 182 q 368 82 293 82 q 503 138 451 82 q 556 283 556 194 l 556 722 l 667 722 l 667 0 q 603 -43 636 -11 q 569 -115 569 -75 q 594 -165 569 -149 q 654 -182 618 -182 l 654 -268 q 621 -271 643 -271 q 515 -237 560 -271 q 469 -140 469 -203 z "},"Ŵ":{"ha":1310,"x_min":15,"x_max":1293,"o":"m 890 0 l 654 807 l 418 0 l 293 0 l 15 972 l 136 972 l 360 143 l 599 972 l 710 972 l 949 143 l 1174 972 l 1293 972 l 1017 0 l 890 0 m 742 1040 l 656 1154 l 571 1040 l 467 1040 l 597 1221 l 714 1221 l 844 1040 l 742 1040 z "},"ŵ":{"ha":1133,"x_min":10,"x_max":1124,"o":"m 758 0 l 567 574 l 374 0 l 253 0 l 10 722 l 129 722 l 318 128 q 513 722 319 132 l 621 722 l 814 128 l 1004 722 l 1124 722 l 879 0 l 758 0 m 653 825 l 567 939 l 482 825 l 378 825 l 508 1006 l 625 1006 l 756 825 l 653 825 z "},"Ŷ":{"ha":739,"x_min":13,"x_max":726,"o":"m 314 0 l 314 456 l 13 972 l 142 972 l 369 563 l 601 972 l 726 972 l 425 456 l 425 0 l 314 0 m 457 1040 l 371 1154 l 286 1040 l 182 1040 l 313 1221 l 429 1221 l 560 1040 l 457 1040 z "},"ŷ":{"ha":706,"x_min":8,"x_max":696,"o":"m 308 -249 l 199 -249 l 303 7 l 8 722 l 128 722 l 357 142 l 579 722 l 696 722 l 308 -249 m 444 825 l 358 939 l 274 825 l 169 825 l 300 1006 l 417 1006 l 547 825 l 444 825 z "},"Ÿ":{"ha":739,"x_min":13,"x_max":726,"o":"m 314 0 l 314 456 l 13 972 l 142 972 l 369 563 l 601 972 l 726 972 l 425 456 l 425 0 l 314 0 m 190 1150 q 210 1199 190 1178 q 260 1219 231 1219 q 309 1199 289 1219 q 329 1150 329 1179 q 310 1101 329 1121 q 260 1081 290 1081 q 210 1101 231 1081 q 190 1150 190 1121 m 438 1101 q 428 1111 438 1101 q 418 1150 418 1121 q 438 1199 418 1179 q 488 1219 458 1219 q 537 1199 517 1219 q 557 1150 557 1178 q 537 1101 557 1121 q 488 1081 517 1081 q 438 1101 457 1081 z "},"Ź":{"ha":825,"x_min":49,"x_max":769,"o":"m 49 0 l 49 82 l 621 871 l 67 871 l 67 972 l 767 972 l 767 889 l 193 101 l 769 101 l 769 0 l 49 0 m 349 1033 l 447 1231 l 568 1231 l 444 1033 l 349 1033 z "},"ź":{"ha":642,"x_min":44,"x_max":594,"o":"m 44 0 l 44 78 l 458 628 l 57 628 l 57 722 l 588 722 l 588 643 l 175 93 l 594 93 l 594 0 l 44 0 m 243 810 l 342 1007 l 463 1007 l 339 810 l 243 810 z "},"Ż":{"ha":825,"x_min":49,"x_max":769,"o":"m 49 0 l 49 82 l 621 871 l 67 871 l 67 972 l 767 972 l 767 889 l 193 101 l 769 101 l 769 0 l 49 0 m 339 1125 q 361 1178 339 1156 q 414 1200 383 1200 q 468 1178 446 1200 q 490 1125 490 1157 q 468 1071 490 1093 q 414 1049 446 1049 q 360 1071 382 1049 q 339 1125 339 1093 z "},"ż":{"ha":642,"x_min":44,"x_max":594,"o":"m 44 0 l 44 78 l 458 628 l 57 628 l 57 722 l 588 722 l 588 643 l 175 93 l 594 93 l 594 0 l 44 0 m 247 908 q 269 961 247 939 q 322 983 292 983 q 376 962 354 983 q 399 908 399 940 q 376 854 399 876 q 322 832 354 832 q 269 854 290 832 q 247 908 247 876 z "},"Ž":{"ha":825,"x_min":49,"x_max":769,"o":"m 49 0 l 49 82 l 621 871 l 67 871 l 67 972 l 767 972 l 767 889 l 193 101 l 769 101 l 769 0 l 49 0 m 411 1107 l 497 1221 l 600 1221 l 469 1040 l 353 1040 l 222 1221 l 326 1221 l 411 1107 z "},"ž":{"ha":642,"x_min":44,"x_max":594,"o":"m 44 0 l 44 78 l 458 628 l 57 628 l 57 722 l 588 722 l 588 643 l 175 93 l 594 93 l 594 0 l 44 0 m 322 892 l 408 1006 l 511 1006 l 381 825 l 264 825 l 133 1006 l 238 1006 l 322 892 z "},"ƒ":{"ha":632,"x_min":-53,"x_max":596,"o":"m 344 488 l 282 42 q 268 -51 274 -17 q 181 -217 247 -167 q 28 -267 115 -267 l -53 -258 l -39 -164 q 25 -171 -8 -171 q 122 -128 89 -171 q 169 14 156 -86 l 235 488 l 135 488 l 135 581 l 247 581 l 271 751 q 356 929 288 875 q 515 983 424 983 l 596 975 l 583 881 q 518 888 551 888 q 423 852 457 888 q 376 731 389 817 l 357 581 l 501 581 l 501 488 l 344 488 z "},"Ǻ":{"ha":875,"x_min":17,"x_max":858,"o":"m 313 1032 q 348 1119 313 1085 q 436 1153 383 1153 q 527 1119 492 1153 q 563 1033 563 1086 q 510 932 563 967 l 858 0 l 744 0 l 628 315 l 247 315 l 131 0 l 17 0 l 365 931 q 313 1032 313 965 m 594 413 l 438 849 l 282 413 l 594 413 m 390 1189 l 489 1386 l 610 1386 l 486 1189 l 390 1189 m 396 1074 q 388 1066 396 1074 q 381 1032 381 1058 q 396 990 381 1006 q 438 974 411 974 q 479 990 464 974 q 494 1033 494 1006 q 479 1074 494 1058 q 436 1090 464 1090 q 396 1074 411 1090 z "},"ǻ":{"ha":708,"x_min":47,"x_max":625,"o":"m 47 222 q 125 392 47 325 q 325 460 203 460 q 440 440 389 460 q 515 394 490 421 l 515 483 q 468 601 515 558 q 340 643 421 643 q 128 581 233 643 l 83 661 q 350 740 210 740 q 558 669 492 740 q 625 476 625 599 l 625 0 l 531 0 l 518 61 q 322 -18 449 -18 q 125 49 203 -18 q 47 222 47 117 m 208 330 q 183 309 208 330 q 158 224 158 288 q 208 117 158 160 q 340 74 258 74 q 469 116 419 74 q 519 224 519 158 q 470 332 519 292 q 339 372 421 372 q 208 330 258 372 m 304 1072 l 403 1269 l 524 1269 l 400 1072 l 304 1072 m 266 824 q 248 841 266 824 q 231 911 231 858 q 266 998 231 964 q 354 1032 301 1032 q 445 999 410 1032 q 481 913 481 965 q 445 825 481 860 q 356 790 410 790 q 266 824 301 790 m 314 953 q 306 945 314 953 q 299 911 299 938 q 314 869 299 885 q 356 853 329 853 q 397 869 382 853 q 413 913 413 885 q 397 953 413 938 q 354 969 382 969 q 314 953 329 969 z "},"Ǽ":{"ha":1126,"x_min":11,"x_max":1053,"o":"m 11 0 l 507 972 l 1039 972 l 1039 869 l 690 869 l 690 546 l 994 546 l 994 444 l 690 444 l 690 101 l 1053 101 l 1053 0 l 578 0 l 578 315 l 288 315 l 133 0 l 11 0 m 557 869 l 335 413 l 578 413 l 578 869 l 557 869 m 622 1033 l 721 1231 l 842 1231 l 718 1033 l 622 1033 z "},"ǽ":{"ha":1249,"x_min":47,"x_max":1204,"o":"m 47 222 q 125 392 47 325 q 325 460 203 460 q 440 440 389 460 q 515 394 490 421 l 515 483 q 468 601 515 558 q 340 643 421 643 q 128 581 233 643 l 83 661 q 350 740 210 740 q 593 600 540 740 q 709 703 639 667 q 861 740 779 740 q 1111 638 1018 740 q 1204 371 1204 536 l 1204 338 l 625 338 q 698 149 626 218 q 883 79 769 79 q 1108 192 1028 79 l 1181 139 q 1069 29 1143 76 q 883 -18 994 -18 q 702 22 782 -18 q 579 136 622 61 q 488 27 553 72 q 322 -18 422 -18 q 125 49 203 -18 q 47 222 47 117 m 208 330 q 183 309 208 330 q 158 224 158 288 q 208 117 158 160 q 340 74 258 74 q 468 115 419 74 q 517 224 517 157 q 468 332 517 292 q 339 372 419 372 q 208 330 258 372 m 629 419 l 1092 419 q 1021 587 1086 528 q 861 646 956 646 q 704 585 769 646 q 629 419 639 525 m 535 810 l 633 1007 l 754 1007 l 631 810 l 535 810 z "},"Ǿ":{"ha":1097,"x_min":54,"x_max":1046,"o":"m 54 486 q 197 846 54 701 q 550 990 339 990 q 824 908 701 990 l 896 999 l 965 943 l 894 853 q 1046 486 1046 708 q 903 126 1046 271 q 549 -18 761 -18 q 272 63 394 -18 l 201 -28 l 132 28 l 203 118 q 54 486 54 263 m 171 486 q 275 208 171 319 l 756 822 q 550 885 664 885 q 279 771 388 885 q 171 486 171 657 m 929 486 q 824 764 929 650 l 340 149 q 550 88 431 88 q 820 201 711 88 q 929 486 929 314 m 479 1033 l 578 1231 l 699 1231 l 575 1033 l 479 1033 z "},"ǿ":{"ha":846,"x_min":46,"x_max":800,"o":"m 46 361 q 153 633 46 525 q 424 740 261 740 q 629 682 539 740 l 682 750 l 746 699 l 693 632 q 800 361 800 525 q 692 90 800 199 q 422 -18 585 -18 q 225 33 311 -18 l 172 -33 l 108 17 l 160 82 q 46 361 46 192 m 158 361 q 228 168 158 244 l 564 600 q 422 640 499 640 q 233 560 307 640 q 158 361 158 481 m 689 361 q 625 544 689 467 l 290 117 q 422 82 346 82 q 614 161 539 82 q 689 361 689 240 m 354 810 l 453 1007 l 574 1007 l 450 810 l 354 810 z "},"Ș":{"ha":703,"x_min":47,"x_max":646,"o":"m 47 196 l 143 238 q 356 86 196 86 q 483 129 435 86 q 532 247 532 172 q 498 347 532 304 q 414 413 464 389 q 304 468 364 438 q 194 528 244 499 q 110 613 144 558 q 76 742 76 668 q 152 919 76 849 q 354 990 228 990 q 537 931 469 990 q 629 804 604 872 l 535 765 q 353 888 479 888 q 232 846 275 888 q 189 742 189 804 q 236 637 189 681 q 350 563 283 593 q 484 497 417 532 q 599 401 551 463 q 646 254 646 340 q 565 59 646 136 q 351 -18 485 -18 q 149 46 224 -18 q 47 196 75 110 m 281 -119 q 301 -67 281 -89 q 351 -46 321 -46 q 408 -69 386 -46 q 429 -128 429 -92 q 329 -329 429 -244 l 282 -283 q 343 -190 333 -242 q 298 -166 315 -186 q 281 -119 281 -146 z "},"ș":{"ha":579,"x_min":40,"x_max":538,"o":"m 40 136 l 117 186 q 297 75 176 75 q 392 106 354 75 q 431 190 431 138 q 393 267 431 236 q 303 317 356 297 q 197 361 250 338 q 106 431 143 385 q 68 544 68 476 q 134 687 68 633 q 300 740 200 740 q 448 697 390 740 q 524 601 506 653 l 443 556 q 293 649 397 649 q 208 622 242 649 q 174 549 174 594 q 211 474 174 504 q 302 425 249 444 q 409 383 356 406 q 500 313 463 360 q 538 196 538 265 q 468 42 538 101 q 292 -18 399 -18 q 40 136 113 -18 m 225 -119 q 245 -67 225 -89 q 296 -46 265 -46 q 352 -69 331 -46 q 374 -128 374 -92 q 274 -329 374 -244 l 226 -283 q 288 -190 278 -242 q 242 -166 260 -186 q 225 -119 225 -146 z "},"Ț":{"ha":710,"x_min":29,"x_max":665,"o":"m 292 0 l 292 869 l 29 869 l 29 972 l 665 972 l 665 869 l 404 869 l 404 0 l 292 0 m 272 -119 q 292 -67 272 -89 q 343 -46 313 -46 q 399 -69 378 -46 q 421 -128 421 -92 q 321 -329 421 -244 l 274 -283 q 335 -190 325 -242 q 290 -166 307 -186 q 272 -119 272 -146 z "},"ț":{"ha":410,"x_min":18,"x_max":376,"o":"m 103 722 l 103 874 l 213 874 l 213 722 l 371 722 l 371 629 l 213 629 l 213 257 q 242 125 213 160 q 346 90 272 90 l 376 92 l 376 -6 q 310 -10 347 -10 q 103 247 103 -10 l 103 629 l 18 629 l 18 722 l 103 722 m 183 -119 q 203 -67 183 -89 q 254 -46 224 -46 q 310 -69 289 -46 q 332 -128 332 -92 q 232 -329 332 -244 l 185 -283 q 246 -190 236 -242 q 201 -166 218 -186 q 183 -119 183 -146 z "},"ȷ":{"ha":299,"x_min":-58,"x_max":204,"o":"m 94 -21 l 94 722 l 204 722 l 204 -24 q -21 -265 204 -265 l -58 -262 l -58 -168 q -28 -169 -40 -169 q 94 -21 94 -169 z "},"ˆ":{"ha":626,"x_min":124,"x_max":501,"o":"m 399 825 l 313 939 l 228 825 l 124 825 l 254 1006 l 371 1006 l 501 825 l 399 825 z "},"ˇ":{"ha":626,"x_min":124,"x_max":501,"o":"m 313 892 l 399 1006 l 501 1006 l 371 825 l 254 825 l 124 1006 l 228 1006 l 313 892 z "},"˘":{"ha":626,"x_min":136,"x_max":489,"o":"m 443 865 q 420 840 443 865 q 313 815 397 815 q 182 865 228 815 q 136 990 136 914 l 224 990 q 313 892 224 892 q 380 919 358 892 q 401 990 401 946 l 489 990 q 443 865 489 914 z "},"˙":{"ha":626,"x_min":238,"x_max":389,"o":"m 238 908 q 259 961 238 939 q 313 983 281 983 q 367 962 344 983 q 389 908 389 940 q 367 854 389 876 q 313 832 344 832 q 259 854 281 832 q 238 908 238 876 z "},"˚":{"ha":626,"x_min":188,"x_max":438,"o":"m 223 835 q 205 852 223 835 q 188 922 188 869 q 223 1009 188 975 q 311 1043 258 1043 q 402 1010 367 1043 q 438 924 438 976 q 402 836 438 871 q 313 801 367 801 q 223 835 258 801 m 271 965 q 263 957 271 965 q 256 922 256 949 q 271 880 256 896 q 313 864 286 864 q 354 880 339 864 q 369 924 369 896 q 354 965 369 949 q 311 981 339 981 q 271 965 286 981 z "},"˛":{"ha":626,"x_min":214,"x_max":411,"o":"m 214 -140 q 247 -53 214 -92 q 318 0 279 -15 l 411 0 q 347 -43 381 -11 q 314 -115 314 -75 q 338 -165 314 -149 q 399 -182 363 -182 l 399 -268 q 365 -271 388 -271 q 259 -237 304 -271 q 214 -140 214 -203 z "},"˜":{"ha":626,"x_min":94,"x_max":529,"o":"m 401 835 q 307 866 363 835 q 226 897 251 897 q 189 881 203 897 q 174 836 175 864 l 94 836 q 131 942 94 903 q 225 982 167 982 q 319 951 263 982 q 399 921 376 921 q 436 938 422 921 q 451 982 450 954 l 529 982 q 494 875 529 915 q 401 835 458 835 z "},"˝":{"ha":635,"x_min":122,"x_max":511,"o":"m 297 810 l 396 1007 l 511 1007 l 388 810 l 297 810 m 122 810 l 221 1007 l 336 1007 l 213 810 l 122 810 z "},"Ẁ":{"ha":1308,"x_min":15,"x_max":1293,"o":"m 890 0 l 654 807 l 418 0 l 293 0 l 15 972 l 136 972 l 360 143 l 599 972 l 710 972 l 949 143 l 1174 972 l 1293 972 l 1017 0 l 890 0 m 597 1231 l 697 1033 l 600 1033 l 478 1231 l 597 1231 z "},"ẁ":{"ha":1133,"x_min":10,"x_max":1124,"o":"m 758 0 l 567 574 l 374 0 l 253 0 l 10 722 l 129 722 l 318 128 q 513 722 319 132 l 621 722 l 814 128 l 1004 722 l 1124 722 l 879 0 l 758 0 m 521 1007 l 621 810 l 524 810 l 401 1007 l 521 1007 z "},"Ẃ":{"ha":1247,"x_min":15,"x_max":1293,"o":"m 890 0 l 654 807 l 418 0 l 293 0 l 15 972 l 136 972 l 360 143 l 599 972 l 710 972 l 949 143 l 1174 972 l 1293 972 l 1017 0 l 890 0 m 589 1033 l 688 1231 l 808 1231 l 685 1033 l 589 1033 z "},"ẃ":{"ha":1133,"x_min":10,"x_max":1124,"o":"m 758 0 l 567 574 l 374 0 l 253 0 l 10 722 l 129 722 l 318 128 q 513 722 319 132 l 621 722 l 814 128 l 1004 722 l 1124 722 l 879 0 l 758 0 m 517 810 l 615 1007 l 736 1007 l 613 810 l 517 810 z "},"Ẅ":{"ha":1308,"x_min":15,"x_max":1293,"o":"m 890 0 l 654 807 l 418 0 l 293 0 l 15 972 l 136 972 l 360 143 l 599 972 l 710 972 l 949 143 l 1174 972 l 1293 972 l 1017 0 l 890 0 m 471 1128 q 491 1176 471 1156 q 540 1197 511 1197 q 590 1177 569 1197 q 610 1128 610 1157 q 590 1078 610 1099 q 540 1058 571 1058 q 491 1078 511 1058 q 471 1128 471 1099 m 718 1078 q 708 1089 718 1078 q 699 1128 699 1099 q 719 1177 699 1157 q 768 1197 739 1197 q 817 1176 797 1197 q 838 1128 838 1156 q 817 1078 838 1099 q 768 1058 797 1058 q 718 1078 738 1058 z "},"ẅ":{"ha":1133,"x_min":10,"x_max":1124,"o":"m 758 0 l 567 574 l 374 0 l 253 0 l 10 722 l 129 722 l 318 128 q 513 722 319 132 l 621 722 l 814 128 l 1004 722 l 1124 722 l 879 0 l 758 0 m 382 907 q 402 956 382 935 q 451 976 422 976 q 501 956 481 976 q 521 907 521 936 q 501 858 521 878 q 451 838 482 838 q 402 858 422 838 q 382 907 382 878 m 629 858 q 619 868 629 858 q 610 907 610 878 q 630 956 610 936 q 679 976 650 976 q 728 956 708 976 q 749 907 749 935 q 728 858 749 878 q 679 838 708 838 q 629 858 649 838 z "},"Ỳ":{"ha":739,"x_min":13,"x_max":726,"o":"m 314 0 l 314 456 l 13 972 l 142 972 l 369 563 l 601 972 l 726 972 l 425 456 l 425 0 l 314 0 m 321 1231 l 421 1033 l 324 1033 l 201 1231 l 321 1231 z "},"ỳ":{"ha":706,"x_min":8,"x_max":696,"o":"m 308 -249 l 199 -249 l 303 7 l 8 722 l 128 722 l 357 142 l 579 722 l 696 722 l 308 -249 m 333 1007 l 433 810 l 336 810 l 214 1007 l 333 1007 z "},"–":{"ha":833,"x_min":57,"x_max":776,"o":"m 57 371 l 57 465 l 776 465 l 776 371 l 57 371 z "},"—":{"ha":1203,"x_min":57,"x_max":1144,"o":"m 57 371 l 57 465 l 1144 465 l 1144 371 l 57 371 z "},"‘":{"ha":257,"x_min":47,"x_max":206,"o":"m 206 768 q 183 713 206 736 q 129 689 161 689 q 71 713 94 689 q 47 774 47 736 q 154 994 47 903 l 206 944 q 163 901 185 929 q 138 844 142 872 q 187 817 168 839 q 206 768 206 796 z "},"’":{"ha":257,"x_min":50,"x_max":208,"o":"m 51 917 q 73 972 51 949 q 126 994 94 994 q 185 972 163 994 q 208 911 208 949 q 101 689 208 783 l 50 739 q 118 840 108 783 q 69 867 88 844 q 51 917 51 889 z "},"‚":{"ha":294,"x_min":68,"x_max":226,"o":"m 68 60 q 90 115 68 92 q 144 138 113 138 q 203 115 179 138 q 226 54 226 92 q 119 -168 226 -74 l 68 -118 q 136 -17 126 -74 q 87 10 106 -12 q 68 60 68 32 z "},"“":{"ha":463,"x_min":47,"x_max":411,"o":"m 206 768 q 183 713 206 736 q 129 689 161 689 q 71 713 94 689 q 47 774 47 736 q 154 994 47 903 l 206 944 q 163 901 185 929 q 138 844 142 872 q 187 817 168 839 q 206 768 206 796 m 411 768 q 389 713 411 736 q 335 689 367 689 q 276 713 300 689 q 253 774 253 736 q 360 994 253 903 l 411 944 q 369 901 390 929 q 343 844 347 872 q 392 817 374 839 q 411 768 411 796 z "},"”":{"ha":463,"x_min":50,"x_max":414,"o":"m 257 917 q 278 972 257 949 q 332 994 300 994 q 391 972 368 994 q 414 911 414 949 q 307 689 414 783 l 256 739 q 324 840 314 783 q 275 867 293 844 q 257 917 257 889 m 51 917 q 73 972 51 949 q 126 994 94 994 q 185 972 163 994 q 208 911 208 949 q 101 689 208 783 l 50 739 q 118 840 108 783 q 69 867 88 844 q 51 917 51 889 z "},"„":{"ha":463,"x_min":50,"x_max":414,"o":"m 257 60 q 278 115 257 92 q 332 138 300 138 q 391 115 368 138 q 414 54 414 92 q 307 -168 414 -74 l 256 -118 q 324 -17 314 -74 q 275 10 293 -12 q 257 60 257 32 m 51 60 q 73 115 51 92 q 126 138 94 138 q 185 115 163 138 q 208 54 208 92 q 101 -168 208 -74 l 50 -118 q 118 -17 108 -74 q 69 10 88 -12 q 51 60 51 32 z "},"†":{"ha":525,"x_min":46,"x_max":478,"o":"m 206 0 l 206 633 l 46 633 l 46 731 l 206 731 l 206 972 l 315 972 l 315 731 l 478 731 l 478 633 l 315 633 l 315 0 l 206 0 z "},"‡":{"ha":546,"x_min":57,"x_max":489,"o":"m 57 263 l 57 360 l 217 360 l 217 611 l 57 611 l 57 708 l 217 708 l 217 972 l 325 972 l 325 708 l 489 708 l 489 611 l 325 611 l 325 360 l 489 360 l 489 263 l 325 263 l 325 0 l 217 0 l 217 263 l 57 263 z "},"•":{"ha":564,"x_min":43,"x_max":521,"o":"m 453 261 q 419 226 453 261 q 282 192 385 192 q 111 261 179 192 q 43 431 43 331 q 111 600 43 531 q 282 669 179 669 q 453 600 385 669 q 521 431 521 531 q 453 261 521 331 z "},"…":{"ha":938,"x_min":68,"x_max":868,"o":"m 92 5 q 80 16 92 5 q 68 60 68 28 q 92 115 68 92 q 147 138 115 138 q 202 115 179 138 q 225 60 225 92 q 202 5 225 28 q 147 -18 179 -18 q 92 5 115 -18 m 413 5 q 402 16 413 5 q 390 60 390 28 q 413 115 390 92 q 468 138 436 138 q 524 115 500 138 q 547 60 547 92 q 524 5 547 28 q 468 -18 500 -18 q 413 5 436 -18 m 735 5 q 723 16 735 5 q 711 60 711 28 q 735 115 711 92 q 790 138 758 138 q 845 115 822 138 q 868 60 868 92 q 845 5 868 28 q 790 -18 822 -18 q 735 5 758 -18 z "},"‰":{"ha":1554,"x_min":56,"x_max":1499,"o":"m 99 0 l 839 972 l 953 972 l 211 0 l 99 0 m 269 565 q 117 626 178 565 q 56 776 56 688 q 117 928 56 865 q 268 990 178 990 q 425 928 363 990 q 488 776 488 867 q 425 626 488 688 q 269 565 363 565 m 271 651 q 360 688 326 651 q 393 776 393 724 q 358 867 393 831 q 269 904 324 904 q 183 867 217 904 q 149 776 149 831 q 183 688 149 724 q 271 651 218 651 m 563 193 q 624 344 563 282 q 776 407 685 407 q 932 345 869 407 q 994 193 994 283 q 932 43 994 104 q 778 -18 869 -18 q 624 42 685 -18 q 563 193 563 103 m 690 283 q 673 265 690 283 q 656 193 656 247 q 690 103 656 139 q 778 67 724 67 q 867 103 833 67 q 900 193 900 139 q 866 283 900 247 q 776 319 832 319 q 690 283 724 319 m 1065 193 q 1127 344 1065 282 q 1279 407 1189 407 q 1436 345 1374 407 q 1499 193 1499 283 q 1436 43 1499 104 q 1281 -18 1374 -18 q 1126 42 1188 -18 q 1065 193 1065 103 m 1192 283 q 1175 265 1192 283 q 1158 193 1158 247 q 1193 103 1158 139 q 1282 67 1228 67 q 1370 103 1336 67 q 1404 193 1404 139 q 1369 283 1404 247 q 1279 319 1335 319 q 1192 283 1226 319 z "},"‹":{"ha":375,"x_min":47,"x_max":326,"o":"m 219 151 l 47 406 l 219 661 l 326 661 l 154 406 l 326 151 l 219 151 z "},"›":{"ha":375,"x_min":47,"x_max":326,"o":"m 326 406 l 154 151 l 47 151 l 219 406 l 47 661 l 154 661 l 326 406 z "},"⁄":{"ha":583,"x_min":-29,"x_max":613,"o":"m 72 -57 l -29 -57 l 511 1029 l 613 1029 l 72 -57 z "},"€":{"ha":871,"x_min":39,"x_max":824,"o":"m 39 346 l 39 431 l 111 431 q 108 486 108 461 q 111 553 108 514 l 39 553 l 39 638 l 128 638 q 292 892 171 793 q 572 990 413 990 q 810 931 719 990 l 763 839 q 582 886 682 886 q 374 818 463 886 q 250 638 285 750 l 635 638 l 628 553 l 231 553 q 226 488 226 522 q 231 431 226 458 l 618 431 l 611 346 l 251 346 q 372 161 285 233 q 581 89 460 89 q 778 143 697 89 l 824 53 q 727 5 793 28 q 583 -18 661 -18 q 288 85 410 -18 q 126 346 167 189 l 39 346 z "},"№":{"ha":1556,"x_min":108,"x_max":1481,"o":"m 1122 853 q 1101 830 1122 853 q 1081 742 1081 807 q 1122 632 1081 676 q 1233 588 1164 588 q 1344 632 1303 588 q 1386 742 1386 676 q 1344 853 1386 807 q 1233 899 1303 899 q 1122 853 1164 899 m 1056 567 q 1021 603 1056 567 q 986 742 986 639 q 1056 917 986 844 q 1233 990 1126 990 q 1410 917 1340 990 q 1481 742 1481 844 q 1410 567 1481 639 q 1233 496 1340 496 q 1056 567 1126 496 m 108 0 l 108 972 l 221 972 l 757 178 l 757 972 l 868 972 l 868 0 l 757 0 l 221 792 l 221 0 l 108 0 m 1006 317 l 1006 419 l 1460 419 l 1460 317 l 1006 317 z "},"™":{"ha":1013,"x_min":40,"x_max":971,"o":"m 169 472 l 169 894 l 40 894 l 40 972 l 382 972 l 382 894 l 253 894 l 253 472 l 169 472 m 743 529 l 663 529 l 515 832 l 515 472 l 435 472 l 435 972 l 536 972 l 703 625 l 871 972 l 971 972 l 971 472 l 892 472 l 892 832 l 743 529 z "},"−":{"ha":764,"x_min":56,"x_max":708,"o":"m 56 386 l 56 479 l 708 479 l 708 386 l 56 386 z "},"":{"ha":319,"x_min":88,"x_max":236,"o":"m 88 -119 q 108 -67 88 -89 q 158 -46 128 -46 q 215 -69 193 -46 q 236 -128 236 -92 q 136 -329 236 -244 l 89 -283 q 150 -190 140 -242 q 105 -166 122 -186 q 88 -119 88 -146 z "}}}
